  0
SECTION
  2
HEADER
  0
ENDSEC
  0
SECTION
  2
TABLES
  0
TABLE
  2
LTYPE
  70
0
  0
ENDTAB
  0
TABLE
  2
LAYER
  70
7
  0
LAYER
  2
R
  70
0
  62
7
  6
CONTINUOUS
  0
LAYER
  2
PMP
  70
0
  62
7
  6
CONTINUOUS
  0
LAYER
  2
P0
  70
0
  62
7
  6
CONTINUOUS
  0
LAYER
  2
BAB
  70
0
  62
7
  6
CONTINUOUS
  0
LAYER
  2
C400
  70
0
  62
7
  6
CONTINUOUS
  0
LAYER
  2
C500
  70
0
  62
7
  6
CONTINUOUS
  0
LAYER
  2
C300
  70
0
  62
7
  6
CONTINUOUS
  0
ENDTAB
  0
TABLE
  2
STYLE
  70
0
  0
ENDTAB
  0
TABLE
  2
VIEW
  70
0
  0
ENDTAB
  0
TABLE
  2
UCS
  70
0
  0
ENDTAB
  0
TABLE
  2
VPORT
  70
0
  0
ENDTAB
  0
TABLE
  2
DIMSTYLE
  70
0
  0
ENDTAB
  0
TABLE
  2
APPID
  70
0
  0
ENDTAB
  0
ENDSEC
  0
SECTION
  2
BLOCKS
  0
BLOCK
  8
0
  2
CIRCLE_IN_SQUARE
  70
64
  10
0
  20
0
  30
0
  0
POLYLINE
  8
0
  62
0
  66
1
  10
0
  20
0
  70
1
 40
0
 41
0
 38
0
  0
VERTEX
  8
0
  10
-3
  20
3
  30
0
  0
VERTEX
  8
0
  10
-3
  20
-3
  30
0
  0
VERTEX
  8
0
  10
3
  20
-3
  30
0
  0
VERTEX
  8
0
  10
3
  20
3
  30
0
  0
SEQEND
  0
CIRCLE
  8
0
  62
0
  10
0
  20
0
  40
1.2
  0
ENDBLK
  0
BLOCK
  8
0
  2
SQUARE
  70
64
  10
0
  20
0
  30
0
  0
POLYLINE
  8
0
  62
0
  66
1
  10
0
  20
0
  70
1
 40
0
 41
0
 38
0
  0
VERTEX
  8
0
  10
-3
  20
3
  30
0
  0
VERTEX
  8
0
  10
-3
  20
-3
  30
0
  0
VERTEX
  8
0
  10
3
  20
-3
  30
0
  0
VERTEX
  8
0
  10
3
  20
3
  30
0
  0
SEQEND
  0
ENDBLK
  0
BLOCK
  8
0
  2
TRIANGLE
  70
64
  10
0
  20
0
  30
0
  0
POLYLINE
  8
0
  62
0
  66
1
  10
0
  20
0
  70
1
 40
0
 41
0
 38
0
  0
VERTEX
  8
0
  10
0
  20
2.5
  30
0
  0
VERTEX
  8
0
  10
-2.5
  20
-2.5
  30
0
  0
VERTEX
  8
0
  10
2.5
  20
-2.5
  30
0
  0
SEQEND
  0
ENDBLK
  0
BLOCK
  8
0
  2
TWO_CONCENTRIC_CIRCLES
  70
64
  10
0
  20
0
  30
0
  0
CIRCLE
  8
0
  62
0
  10
0
  20
0
  40
3
  0
CIRCLE
  8
0
  62
0
  10
0
  20
0
  40
1.2
  0
ENDBLK
  0
BLOCK
  8
0
  2
CROSS_WITH_SMALL_CIRCLE
  70
64
  10
0
  20
0
  30
0
  0
POLYLINE
  8
0
  62
0
  66
1
  10
0
  20
0
 40
0
 41
0
 38
0
  0
VERTEX
  8
0
  10
-3
  20
0
  30
0
  0
VERTEX
  8
0
  10
3
  20
0
  30
0
  0
SEQEND
  0
POLYLINE
  8
0
  62
0
  66
1
  10
0
  20
0
 40
0
 41
0
 38
0
  0
VERTEX
  8
0
  10
0
  20
-3
  30
0
  0
VERTEX
  8
0
  10
0
  20
3
  30
0
  0
SEQEND
  0
CIRCLE
  8
0
  62
0
  10
0
  20
0
  40
1.2
  0
ENDBLK
  0
BLOCK
  8
0
  2
FLOWARROW
  70
64
  10
0
  20
0
  30
0
  0
POLYLINE
  8
0
  62
0
  66
1
  10
0
  20
0
  70
1
 40
0
 41
0
 38
0
  0
VERTEX
  8
0
  10
3
  20
0
  30
0
  0
VERTEX
  8
0
  10
-3
  20
-3
  30
0
  0
VERTEX
  8
0
  10
-0.6
  20
0
  30
0
  0
VERTEX
  8
0
  10
-3
  20
3
  30
0
  0
SEQEND
  0
ENDBLK
  0
BLOCK
  8
0
  2
FILLED_TRIANGLE
  70
64
  10
0
  20
0
  30
0
  0
POLYLINE
  8
0
  62
0
  66
1
  10
0
  20
0
  70
1
 40
0
 41
0
 38
0
  0
VERTEX
  8
0
  10
0
  20
2.5
  30
0
  0
VERTEX
  8
0
  10
2.5
  20
-2.5
  30
0
  0
VERTEX
  8
0
  10
-2.5
  20
-2.5
  30
0
  0
SEQEND
  0
ENDBLK
  0
BLOCK
  8
0
  2
FILLED_CIRCLE
  70
64
  10
0
  20
0
  30
0
  0
CIRCLE
  8
0
  62
0
  10
0
  20
0
  40
3
  0
ENDBLK
  0
BLOCK
  8
0
  2
FILLED_DIAMOND
  70
64
  10
0
  20
0
  30
0
  0
POLYLINE
  8
0
  62
0
  66
1
  10
0
  20
0
  70
1
 40
0
 41
0
 38
0
  0
VERTEX
  8
0
  10
0
  20
3
  30
0
  0
VERTEX
  8
0
  10
3
  20
0
  30
0
  0
VERTEX
  8
0
  10
0
  20
-3
  30
0
  0
VERTEX
  8
0
  10
-3
  20
0
  30
0
  0
SEQEND
  0
ENDBLK
  0
BLOCK
  8
0
  2
FILLED_SQUARE
  70
64
  10
0
  20
0
  30
0
  0
POLYLINE
  8
0
  62
0
  66
1
  10
0
  20
0
  70
1
 40
0
 41
0
 38
0
  0
VERTEX
  8
0
  10
-3
  20
3
  30
0
  0
VERTEX
  8
0
  10
3
  20
3
  30
0
  0
VERTEX
  8
0
  10
3
  20
-3
  30
0
  0
VERTEX
  8
0
  10
-3
  20
-3
  30
0
  0
SEQEND
  0
ENDBLK
  0
BLOCK
  8
0
  2
FILLED_WATERMARK
  70
64
  10
0
  20
0
  30
0
  0
POLYLINE
  8
0
  62
0
  66
1
  10
0
  20
0
  70
1
 40
0
 41
0
 38
0
  0
VERTEX
  8
0
  10
0
  20
-3
  30
0
  0
VERTEX
  8
0
  10
3
  20
3
  30
0
  0
VERTEX
  8
0
  10
-3
  20
3
  30
0
  0
SEQEND
  0
ENDBLK
  0
BLOCK
  8
0
  2
DIAMOND
  70
64
  10
0
  20
0
  30
0
  0
POLYLINE
  8
0
  62
0
  66
1
  10
0
  20
0
  70
1
 40
0
 41
0
 38
0
  0
VERTEX
  8
0
  10
0
  20
3
  30
0
  0
VERTEX
  8
0
  10
3
  20
0
  30
0
  0
VERTEX
  8
0
  10
0
  20
-3
  30
0
  0
VERTEX
  8
0
  10
-3
  20
0
  30
0
  0
SEQEND
  0
ENDBLK
  0
BLOCK
  8
0
  2
WATERMARK
  70
64
  10
0
  20
0
  30
0
  0
POLYLINE
  8
0
  62
0
  66
1
  10
0
  20
0
  70
1
 40
0
 41
0
 38
0
  0
VERTEX
  8
0
  10
0
  20
-3
  30
0
  0
VERTEX
  8
0
  10
3
  20
3
  30
0
  0
VERTEX
  8
0
  10
-3
  20
3
  30
0
  0
SEQEND
  0
ENDBLK
  0
BLOCK
  8
0
  2
PUMP
  70
64
  10
0
  20
0
  30
0
  0
ARC
  8
0
  62
0
  10
-0.5
  20
0.5
  40
2.5
  50
90
  51
390
  0
POLYLINE
  8
0
  62
0
  66
1
  10
0
  20
0
 40
0
 41
0
 38
0
  0
VERTEX
  8
0
  10
-0.5
  20
3
  30
0
  0
VERTEX
  8
0
  10
3
  20
3
  30
0
  0
VERTEX
  8
0
  10
3
  20
1
  30
0
  0
VERTEX
  8
0
  10
2
  20
1
  30
0
  0
SEQEND
  0
ENDBLK
  0
BLOCK
  8
0
  2
WETWELL
  70
64
  10
0
  20
0
  30
0
  0
POLYLINE
  8
0
  62
0
  66
1
  10
0
  20
0
  70
1
 40
0
 41
0
 38
0
  0
VERTEX
  8
0
  10
-2.5
  20
3
  30
0
  0
VERTEX
  8
0
  10
-2.5
  20
-3
  30
0
  0
VERTEX
  8
0
  10
2.5
  20
-3
  30
0
  0
VERTEX
  8
0
  10
2.5
  20
3
  30
0
  0
SEQEND
  0
POLYLINE
  8
0
  62
0
  66
1
  10
0
  20
0
  70
1
 40
0
 41
0
 38
0
  0
VERTEX
  8
0
  10
-0.833333333333333
  20
2
  30
0
  0
VERTEX
  8
0
  10
0.833333333333333
  20
2
  30
0
  0
VERTEX
  8
0
  10
0
  20
1
  30
0
  0
SEQEND
  0
POLYLINE
  8
0
  62
0
  66
1
  10
0
  20
0
 40
0
 41
0
 38
0
  0
VERTEX
  8
0
  10
-2.5
  20
0.5
  30
0
  0
VERTEX
  8
0
  10
2.5
  20
0.5
  30
0
  0
SEQEND
  0
POLYLINE
  8
0
  62
0
  66
1
  10
0
  20
0
 40
0
 41
0
 38
0
  0
VERTEX
  8
0
  10
-0.833333333333333
  20
-0.25
  30
0
  0
VERTEX
  8
0
  10
0.833333333333333
  20
-0.25
  30
0
  0
SEQEND
  0
ENDBLK
  0
BLOCK
  8
0
  2
LINE
  70
64
  10
0
  20
0
  30
0
  0
POLYLINE
  8
0
  62
0
  66
1
  10
0
  20
0
 40
0
 41
0
 38
0
  0
VERTEX
  8
0
  10
-3
  20
0
  30
0
  0
VERTEX
  8
0
  10
3
  20
0
  30
0
  0
SEQEND
  0
ENDBLK
  0
BLOCK
  8
0
  2
POLYGON
  70
64
  10
0
  20
0
  30
0
  0
POLYLINE
  8
0
  62
0
  66
1
  10
0
  20
0
  70
1
 40
0
 41
0
 38
0
  0
VERTEX
  8
0
  10
-1.5
  20
-3
  30
0
  0
VERTEX
  8
0
  10
-3
  20
0
  30
0
  0
VERTEX
  8
0
  10
0
  20
3
  30
0
  0
VERTEX
  8
0
  10
3
  20
0
  30
0
  0
VERTEX
  8
0
  10
1.5
  20
-3
  30
0
  0
SEQEND
  0
ENDBLK
  0
BLOCK
  8
0
  2
SOLIDRING
  70
64
  10
0
  20
0
  30
0
  0
CIRCLE
  8
0
  62
0
  10
0
  20
0
  40
3
  0
CIRCLE
  8
0
  62
0
  10
0
  20
0
  40
1.8
  0
ENDBLK
  0
BLOCK
  8
0
  2
RESERVOIR
  70
64
  10
0
  20
0
  30
0
  0
POLYLINE
  8
0
  62
0
  66
1
  10
0
  20
0
 40
0
 41
0
 38
0
  0
VERTEX
  8
0
  10
-4.5
  20
2.25
  30
0
  0
VERTEX
  8
0
  10
-1.5
  20
-2.25
  30
0
  0
VERTEX
  8
0
  10
1.5
  20
-2.25
  30
0
  0
VERTEX
  8
0
  10
4.5
  20
2.25
  30
0
  0
SEQEND
  0
POLYLINE
  8
0
  62
0
  66
1
  10
0
  20
0
  70
1
 40
0
 41
0
 38
0
  0
VERTEX
  8
0
  10
-0.75
  20
2.25
  30
0
  0
VERTEX
  8
0
  10
0.75
  20
2.25
  30
0
  0
VERTEX
  8
0
  10
0
  20
1.5
  30
0
  0
SEQEND
  0
POLYLINE
  8
0
  62
0
  66
1
  10
0
  20
0
 40
0
 41
0
 38
0
  0
VERTEX
  8
0
  10
-4
  20
1.5
  30
0
  0
VERTEX
  8
0
  10
4
  20
1.5
  30
0
  0
SEQEND
  0
POLYLINE
  8
0
  62
0
  66
1
  10
0
  20
0
 40
0
 41
0
 38
0
  0
VERTEX
  8
0
  10
-0.375
  20
1.2
  30
0
  0
VERTEX
  8
0
  10
0.375
  20
1.2
  30
0
  0
SEQEND
  0
POLYLINE
  8
0
  62
0
  66
1
  10
0
  20
0
 40
0
 41
0
 38
0
  0
VERTEX
  8
0
  10
-0.1875
  20
1
  30
0
  0
VERTEX
  8
0
  10
0.1875
  20
1
  30
0
  0
SEQEND
  0
ENDBLK
  0
BLOCK
  8
0
  2
TANK
  70
64
  10
0
  20
0
  30
0
  0
POLYLINE
  8
0
  62
0
  66
1
  10
0
  20
0
  70
1
 40
0
 41
0
 38
0
  0
VERTEX
  8
0
  10
-2.5
  20
3
  30
0
  0
VERTEX
  8
0
  10
-2.5
  20
-3
  30
0
  0
VERTEX
  8
0
  10
2.5
  20
-3
  30
0
  0
VERTEX
  8
0
  10
2.5
  20
3
  30
0
  0
SEQEND
  0
POLYLINE
  8
0
  62
0
  66
1
  10
0
  20
0
  70
1
 40
0
 41
0
 38
0
  0
VERTEX
  8
0
  10
-0.833333333333333
  20
2
  30
0
  0
VERTEX
  8
0
  10
0.833333333333333
  20
2
  30
0
  0
VERTEX
  8
0
  10
0
  20
1
  30
0
  0
SEQEND
  0
POLYLINE
  8
0
  62
0
  66
1
  10
0
  20
0
 40
0
 41
0
 38
0
  0
VERTEX
  8
0
  10
-2.5
  20
1
  30
0
  0
VERTEX
  8
0
  10
2.5
  20
1
  30
0
  0
SEQEND
  0
POLYLINE
  8
0
  62
0
  66
1
  10
0
  20
0
 40
0
 41
0
 38
0
  0
VERTEX
  8
0
  10
-0.416666666666667
  20
0.8
  30
0
  0
VERTEX
  8
0
  10
0.416666666666667
  20
0.8
  30
0
  0
SEQEND
  0
POLYLINE
  8
0
  62
0
  66
1
  10
0
  20
0
 40
0
 41
0
 38
0
  0
VERTEX
  8
0
  10
-0.208333333333333
  20
0.666666666666667
  30
0
  0
VERTEX
  8
0
  10
0.208333333333333
  20
0.666666666666667
  30
0
  0
SEQEND
  0
ENDBLK
  0
BLOCK
  8
0
  2
VALVE
  70
64
  10
0
  20
0
  30
0
  0
POLYLINE
  8
0
  62
0
  66
1
  10
0
  20
0
  70
1
 40
0
 41
0
 38
0
  0
VERTEX
  8
0
  10
-3
  20
3
  30
0
  0
VERTEX
  8
0
  10
-3
  20
-3
  30
0
  0
VERTEX
  8
0
  10
0
  20
0
  30
0
  0
SEQEND
  0
POLYLINE
  8
0
  62
0
  66
1
  10
0
  20
0
  70
1
 40
0
 41
0
 38
0
  0
VERTEX
  8
0
  10
0
  20
0
  30
0
  0
VERTEX
  8
0
  10
3
  20
3
  30
0
  0
VERTEX
  8
0
  10
3
  20
-3
  30
0
  0
SEQEND
  0
ENDBLK
  0
BLOCK
  8
0
  2
X
  70
64
  10
0
  20
0
  30
0
  0
POLYLINE
  8
0
  62
0
  66
1
  10
0
  20
0
 40
0
 41
0
 38
0
  0
VERTEX
  8
0
  10
-2.5
  20
2.5
  30
0
  0
VERTEX
  8
0
  10
2.5
  20
-2.5
  30
0
  0
SEQEND
  0
POLYLINE
  8
0
  62
0
  66
1
  10
0
  20
0
 40
0
 41
0
 38
0
  0
VERTEX
  8
0
  10
2.5
  20
2.5
  30
0
  0
VERTEX
  8
0
  10
-2.5
  20
-2.5
  30
0
  0
SEQEND
  0
ENDBLK
  0
BLOCK
  8
0
  2
CHECKVALVE
  70
64
  10
0
  20
0
  30
0
  0
POLYLINE
  8
0
  62
0
  66
1
  10
0
  20
0
 40
0
 41
0
 38
0
  0
VERTEX
  8
0
  10
-3
  20
3
  30
0
  0
VERTEX
  8
0
  10
3
  20
0
  30
0
  0
VERTEX
  8
0
  10
-3
  20
-3
  30
0
  0
SEQEND
  0
POLYLINE
  8
0
  62
0
  66
1
  10
0
  20
0
 40
0
 41
0
 38
0
  0
VERTEX
  8
0
  10
3
  20
3
  30
0
  0
VERTEX
  8
0
  10
3
  20
-3
  30
0
  0
SEQEND
  0
ENDBLK
  0
BLOCK
  8
0
  2
CONSTITUENTSOURCE
  70
64
  10
0
  20
0
  30
0
  0
ARC
  8
0
  62
0
  10
2.75
  20
-0.75
  40
4
  50
90
  51
180
  0
POLYLINE
  8
0
  62
0
  66
1
  10
0
  20
0
  70
1
 40
0
 41
0
 38
0
  0
VERTEX
  8
0
  10
-3
  20
-0.5
  30
0
  0
VERTEX
  8
0
  10
0.5
  20
-0.5
  30
0
  0
VERTEX
  8
0
  10
-1.25
  20
-3
  30
0
  0
SEQEND
  0
ENDBLK
  0
BLOCK
  8
0
  2
CONTROLLEDELEMENT
  70
64
  10
0
  20
0
  30
0
  0
POLYLINE
  8
0
  62
0
  66
1
  10
0
  20
0
  70
1
 40
0
 41
0
 38
0
  0
VERTEX
  8
0
  10
-7
  20
2
  30
0
  0
VERTEX
  8
0
  10
-7
  20
1
  30
0
  0
VERTEX
  8
0
  10
-6
  20
1
  30
0
  0
VERTEX
  8
0
  10
-6
  20
2
  30
0
  0
SEQEND
  0
POLYLINE
  8
0
  62
0
  66
1
  10
0
  20
0
  70
1
 40
0
 41
0
 38
0
  0
VERTEX
  8
0
  10
-7
  20
-1
  30
0
  0
VERTEX
  8
0
  10
-7
  20
-2
  30
0
  0
VERTEX
  8
0
  10
-6
  20
-2
  30
0
  0
VERTEX
  8
0
  10
-6
  20
-1
  30
0
  0
SEQEND
  0
POLYLINE
  8
0
  62
0
  66
1
  10
0
  20
0
 40
0
 41
0
 38
0
  0
VERTEX
  8
0
  10
-6.5
  20
-1.5
  30
0
  0
VERTEX
  8
0
  10
-6.5
  20
1.5
  30
0
  0
SEQEND
  0
ENDBLK
  0
BLOCK
  8
0
  2
CLOSEDPIPE
  70
64
  10
0
  20
0
  30
0
  0
POLYLINE
  8
0
  62
0
  66
1
  10
0
  20
0
 40
0
 41
0
 38
0
  0
VERTEX
  8
0
  10
-1
  20
3
  30
0
  0
VERTEX
  8
0
  10
-1
  20
-3
  30
0
  0
SEQEND
  0
POLYLINE
  8
0
  62
0
  66
1
  10
0
  20
0
 40
0
 41
0
 38
0
  0
VERTEX
  8
0
  10
1
  20
3
  30
0
  0
VERTEX
  8
0
  10
1
  20
-3
  30
0
  0
SEQEND
  0
ENDBLK
  0
BLOCK
  8
0
  2
CIRCLE
  70
64
  10
0
  20
0
  30
0
  0
CIRCLE
  8
0
  62
0
  10
0
  20
0
  40
3
  0
ENDBLK
  0
BLOCK
  8
0
  2
CROSS
  70
64
  10
0
  20
0
  30
0
  0
POLYLINE
  8
0
  62
0
  66
1
  10
0
  20
0
 40
0
 41
0
 38
0
  0
VERTEX
  8
0
  10
-6
  20
0
  30
0
  0
VERTEX
  8
0
  10
6
  20
0
  30
0
  0
SEQEND
  0
POLYLINE
  8
0
  62
0
  66
1
  10
0
  20
0
 40
0
 41
0
 38
0
  0
VERTEX
  8
0
  10
0
  20
6
  30
0
  0
VERTEX
  8
0
  10
0
  20
-6
  30
0
  0
SEQEND
  0
ENDBLK
  0
BLOCK
  8
0
  2
HYDRANT
  70
64
  10
0
  20
0
  30
0
  0
POLYLINE
  8
0
  62
0
  66
1
  10
0
  20
0
  70
1
 40
0
 41
0
 38
0
  0
VERTEX
  8
0
  10
-3
  20
0.6
  30
0
  0
VERTEX
  8
0
  10
3
  20
0.6
  30
0
  0
VERTEX
  8
0
  10
3
  20
-0.6
  30
0
  0
VERTEX
  8
0
  10
-3
  20
-0.6
  30
0
  0
SEQEND
  0
POLYLINE
  8
0
  62
0
  66
1
  10
0
  20
0
  70
1
 40
0
 41
0
 38
0
  0
VERTEX
  8
0
  10
-0.6
  20
3
  30
0
  0
VERTEX
  8
0
  10
-0.6
  20
-3
  30
0
  0
VERTEX
  8
0
  10
0.6
  20
-3
  30
0
  0
VERTEX
  8
0
  10
0.6
  20
3
  30
0
  0
SEQEND
  0
CIRCLE
  8
0
  62
0
  10
0
  20
0
  40
2.1
  0
ENDBLK
  0
BLOCK
  8
0
  2
XINCIRCLE
  70
64
  10
0
  20
0
  30
0
  0
POLYLINE
  8
0
  62
0
  66
1
  10
0
  20
0
 40
0
 41
0
 38
0
  0
VERTEX
  8
0
  10
-1.95
  20
1.95
  30
0
  0
VERTEX
  8
0
  10
1.95
  20
-1.95
  30
0
  0
SEQEND
  0
POLYLINE
  8
0
  62
0
  66
1
  10
0
  20
0
 40
0
 41
0
 38
0
  0
VERTEX
  8
0
  10
1.95
  20
1.95
  30
0
  0
VERTEX
  8
0
  10
-1.95
  20
-1.95
  30
0
  0
SEQEND
  0
CIRCLE
  8
0
  62
0
  10
0
  20
0
  40
2.73
  0
ENDBLK
  0
BLOCK
  8
0
  2
VARIABLE_SPEED_PUMP_BATTERY
  70
64
  10
0
  20
0
  30
0
  0
ARC
  8
0
  62
0
  10
-0.5
  20
0.25
  40
1.25
  50
90
  51
390
  0
POLYLINE
  8
0
  62
0
  66
1
  10
0
  20
0
 40
0
 41
0
 38
0
  0
VERTEX
  8
0
  10
-0.5
  20
1.5
  30
0
  0
VERTEX
  8
0
  10
1.5
  20
1.5
  30
0
  0
VERTEX
  8
0
  10
1.5
  20
0.5
  30
0
  0
VERTEX
  8
0
  10
0.705882352941176
  20
0.5
  30
0
  0
SEQEND
  0
POLYLINE
  8
0
  62
0
  66
1
  10
0
  20
0
  70
1
 40
0
 41
0
 38
0
  0
VERTEX
  8
0
  10
-3
  20
-3
  30
0
  0
VERTEX
  8
0
  10
3
  20
-3
  30
0
  0
VERTEX
  8
0
  10
3
  20
3
  30
0
  0
VERTEX
  8
0
  10
-3
  20
3
  30
0
  0
SEQEND
  0
ENDBLK
  0
BLOCK
  8
0
  2
VALVETCV
  70
64
  10
0
  20
0
  30
0
  0
POLYLINE
  8
0
  62
0
  66
1
  10
0
  20
0
  70
1
 40
0
 41
0
 38
0
  0
VERTEX
  8
0
  10
-3
  20
3
  30
0
  0
VERTEX
  8
0
  10
-3
  20
-3
  30
0
  0
VERTEX
  8
0
  10
0
  20
0
  30
0
  0
SEQEND
  0
POLYLINE
  8
0
  62
0
  66
1
  10
0
  20
0
  70
1
 40
0
 41
0
 38
0
  0
VERTEX
  8
0
  10
0
  20
0
  30
0
  0
VERTEX
  8
0
  10
3
  20
3
  30
0
  0
VERTEX
  8
0
  10
3
  20
-3
  30
0
  0
SEQEND
  0
POLYLINE
  8
0
  62
0
  66
1
  10
0
  20
0
 40
0
 41
0
 38
0
  0
VERTEX
  8
0
  10
0
  20
0
  30
0
  0
VERTEX
  8
0
  10
0
  20
3.6
  30
0
  0
SEQEND
  0
POLYLINE
  8
0
  62
0
  66
1
  10
0
  20
0
 40
0
 41
0
 38
0
  0
VERTEX
  8
0
  10
-3
  20
3.6
  30
0
  0
VERTEX
  8
0
  10
3
  20
3.6
  30
0
  0
SEQEND
  0
ENDBLK
  0
BLOCK
  8
0
  2
VALVEFCV
  70
64
  10
0
  20
0
  30
0
  0
POLYLINE
  8
0
  62
0
  66
1
  10
0
  20
0
  70
1
 40
0
 41
0
 38
0
  0
VERTEX
  8
0
  10
-3
  20
3
  30
0
  0
VERTEX
  8
0
  10
-3
  20
-3
  30
0
  0
VERTEX
  8
0
  10
0
  20
0
  30
0
  0
SEQEND
  0
POLYLINE
  8
0
  62
0
  66
1
  10
0
  20
0
  70
1
 40
0
 41
0
 38
0
  0
VERTEX
  8
0
  10
0
  20
0
  30
0
  0
VERTEX
  8
0
  10
3
  20
3
  30
0
  0
VERTEX
  8
0
  10
3
  20
-3
  30
0
  0
SEQEND
  0
POLYLINE
  8
0
  62
0
  66
1
  10
0
  20
0
  70
1
 40
0
 41
0
 38
0
  0
VERTEX
  8
0
  10
0
  20
0
  30
0
  0
VERTEX
  8
0
  10
-0.9
  20
3.6
  30
0
  0
VERTEX
  8
0
  10
0.9
  20
3.6
  30
0
  0
SEQEND
  0
ENDBLK
  0
BLOCK
  8
0
  2
VALVEPBV
  70
64
  10
0
  20
0
  30
0
  0
POLYLINE
  8
0
  62
0
  66
1
  10
0
  20
0
  70
1
 40
0
 41
0
 38
0
  0
VERTEX
  8
0
  10
-3
  20
3
  30
0
  0
VERTEX
  8
0
  10
-3
  20
-3
  30
0
  0
VERTEX
  8
0
  10
0
  20
0
  30
0
  0
SEQEND
  0
POLYLINE
  8
0
  62
0
  66
1
  10
0
  20
0
  70
1
 40
0
 41
0
 38
0
  0
VERTEX
  8
0
  10
0
  20
0
  30
0
  0
VERTEX
  8
0
  10
3
  20
3
  30
0
  0
VERTEX
  8
0
  10
3
  20
-3
  30
0
  0
SEQEND
  0
POLYLINE
  8
0
  62
0
  66
1
  10
0
  20
0
 40
0
 41
0
 38
0
  0
VERTEX
  8
0
  10
0
  20
-4.5
  30
0
  0
VERTEX
  8
0
  10
0
  20
4.5
  30
0
  0
SEQEND
  0
ENDBLK
  0
BLOCK
  8
0
  2
VALVEPSV
  70
64
  10
0
  20
0
  30
0
  0
POLYLINE
  8
0
  62
0
  66
1
  10
0
  20
0
  70
1
 40
0
 41
0
 38
0
  0
VERTEX
  8
0
  10
-3
  20
3
  30
0
  0
VERTEX
  8
0
  10
-3
  20
-3
  30
0
  0
VERTEX
  8
0
  10
0
  20
0
  30
0
  0
SEQEND
  0
POLYLINE
  8
0
  62
0
  66
1
  10
0
  20
0
  70
1
 40
0
 41
0
 38
0
  0
VERTEX
  8
0
  10
0
  20
0
  30
0
  0
VERTEX
  8
0
  10
3
  20
3
  30
0
  0
VERTEX
  8
0
  10
3
  20
-3
  30
0
  0
SEQEND
  0
POLYLINE
  8
0
  62
0
  66
1
  10
0
  20
0
  70
1
 40
0
 41
0
 38
0
  0
VERTEX
  8
0
  10
0
  20
0
  30
0
  0
VERTEX
  8
0
  10
0
  20
3.6
  30
0
  0
VERTEX
  8
0
  10
-4.5
  20
3.6
  30
0
  0
VERTEX
  8
0
  10
-4.5
  20
0
  30
0
  0
SEQEND
  0
ENDBLK
  0
BLOCK
  8
0
  2
VALVEPRV
  70
64
  10
0
  20
0
  30
0
  0
POLYLINE
  8
0
  62
0
  66
1
  10
0
  20
0
  70
1
 40
0
 41
0
 38
0
  0
VERTEX
  8
0
  10
-3
  20
3
  30
0
  0
VERTEX
  8
0
  10
-3
  20
-3
  30
0
  0
VERTEX
  8
0
  10
0
  20
0
  30
0
  0
SEQEND
  0
POLYLINE
  8
0
  62
0
  66
1
  10
0
  20
0
  70
1
 40
0
 41
0
 38
0
  0
VERTEX
  8
0
  10
0
  20
0
  30
0
  0
VERTEX
  8
0
  10
3
  20
3
  30
0
  0
VERTEX
  8
0
  10
3
  20
-3
  30
0
  0
SEQEND
  0
POLYLINE
  8
0
  62
0
  66
1
  10
0
  20
0
  70
1
 40
0
 41
0
 38
0
  0
VERTEX
  8
0
  10
0
  20
0
  30
0
  0
VERTEX
  8
0
  10
0
  20
3.6
  30
0
  0
VERTEX
  8
0
  10
4.5
  20
3.6
  30
0
  0
VERTEX
  8
0
  10
4.5
  20
0
  30
0
  0
SEQEND
  0
ENDBLK
  0
BLOCK
  8
0
  2
DIVERSIONLINKDECORATION
  70
64
  10
0
  20
0
  30
0
  0
ARC
  8
0
  62
0
  10
-1.2
  20
0.3
  40
3
  50
0
  51
180
  0
POLYLINE
  8
0
  62
0
  66
1
  10
0
  20
0
 40
0
 41
0
 38
0
  0
VERTEX
  8
0
  10
0.6
  20
1.5
  30
0
  0
VERTEX
  8
0
  10
1.8
  20
0.3
  30
0
  0
VERTEX
  8
0
  10
3
  20
1.5
  30
0
  0
SEQEND
  0
ENDBLK
  0
BLOCK
  8
0
  2
AIRVALVE
  70
64
  10
0
  20
0
  30
0
  0
POLYLINE
  8
0
  62
0
  66
1
  10
0
  20
0
 40
0
 41
0
 38
0
  0
VERTEX
  8
0
  10
-2.25
  20
3.42857142857143
  30
0
  0
VERTEX
  8
0
  10
-2.25
  20
2.57142857142857
  30
0
  0
VERTEX
  8
0
  10
-3
  20
2.57142857142857
  30
0
  0
VERTEX
  8
0
  10
-3
  20
0.857142857142857
  30
0
  0
VERTEX
  8
0
  10
-2.25
  20
-0.857142857142857
  30
0
  0
VERTEX
  8
0
  10
-0.75
  20
-1.71428571428571
  30
0
  0
VERTEX
  8
0
  10
-0.75
  20
-2.57142857142857
  30
0
  0
SEQEND
  0
POLYLINE
  8
0
  62
0
  66
1
  10
0
  20
0
 40
0
 41
0
 38
0
  0
VERTEX
  8
0
  10
-0.75
  20
3.42857142857143
  30
0
  0
VERTEX
  8
0
  10
-0.75
  20
2.57142857142857
  30
0
  0
VERTEX
  8
0
  10
3
  20
2.57142857142857
  30
0
  0
VERTEX
  8
0
  10
3
  20
0.857142857142857
  30
0
  0
VERTEX
  8
0
  10
2.25
  20
-0.857142857142857
  30
0
  0
VERTEX
  8
0
  10
0.75
  20
-1.71428571428571
  30
0
  0
VERTEX
  8
0
  10
0.75
  20
-2.57142857142857
  30
0
  0
SEQEND
  0
POLYLINE
  8
0
  62
0
  66
1
  10
0
  20
0
 40
0
 41
0
 38
0
  0
VERTEX
  8
0
  10
-2.625
  20
1.71428571428571
  30
0
  0
VERTEX
  8
0
  10
-0.375
  20
1.71428571428571
  30
0
  0
SEQEND
  0
POLYLINE
  8
0
  62
0
  66
1
  10
0
  20
0
 40
0
 41
0
 38
0
  0
VERTEX
  8
0
  10
-1.5
  20
3
  30
0
  0
VERTEX
  8
0
  10
-1.5
  20
1.71428571428571
  30
0
  0
SEQEND
  0
ENDBLK
  0
BLOCK
  8
0
  2
SAV_SRV
  70
64
  10
0
  20
0
  30
0
  0
POLYLINE
  8
0
  62
0
  66
1
  10
0
  20
0
 40
0
 41
0
 38
0
  0
VERTEX
  8
0
  10
-0.6
  20
0
  30
0
  0
VERTEX
  8
0
  10
-0.6
  20
-3
  30
0
  0
SEQEND
  0
POLYLINE
  8
0
  62
0
  66
1
  10
0
  20
0
 40
0
 41
0
 38
0
  0
VERTEX
  8
0
  10
-3
  20
1.5
  30
0
  0
VERTEX
  8
0
  10
3
  20
1.5
  30
0
  0
SEQEND
  0
POLYLINE
  8
0
  62
0
  66
1
  10
0
  20
0
 40
0
 41
0
 38
0
  0
VERTEX
  8
0
  10
-3
  20
0.125
  30
0
  0
VERTEX
  8
0
  10
-2.4
  20
2.875
  30
0
  0
SEQEND
  0
POLYLINE
  8
0
  62
0
  66
1
  10
0
  20
0
 40
0
 41
0
 38
0
  0
VERTEX
  8
0
  10
-1.8
  20
0.125
  30
0
  0
VERTEX
  8
0
  10
-1.2
  20
2.875
  30
0
  0
SEQEND
  0
POLYLINE
  8
0
  62
0
  66
1
  10
0
  20
0
 40
0
 41
0
 38
0
  0
VERTEX
  8
0
  10
-0.6
  20
0.125
  30
0
  0
VERTEX
  8
0
  10
0
  20
2.875
  30
0
  0
SEQEND
  0
POLYLINE
  8
0
  62
0
  66
1
  10
0
  20
0
  70
1
 40
0
 41
0
 38
0
  0
VERTEX
  8
0
  10
-2.4
  20
0
  30
0
  0
VERTEX
  8
0
  10
1.2
  20
0
  30
0
  0
VERTEX
  8
0
  10
-0.6
  20
1.5
  30
0
  0
SEQEND
  0
POLYLINE
  8
0
  62
0
  66
1
  10
0
  20
0
  70
1
 40
0
 41
0
 38
0
  0
VERTEX
  8
0
  10
0
  20
1.5
  30
0
  0
VERTEX
  8
0
  10
1.8
  20
0
  30
0
  0
VERTEX
  8
0
  10
1.8
  20
3
  30
0
  0
SEQEND
  0
ENDBLK
  0
BLOCK
  8
0
  2
HYDROPNEUMATICTANK
  70
64
  10
0
  20
0
  30
0
  0
POLYLINE
  8
0
  62
0
  66
1
  10
0
  20
0
 40
0
 41
0
 38
0
  0
VERTEX
  8
0
  10
-2.5
  20
2
  30
0
  0
VERTEX
  8
0
  10
-2.5
  20
-2
  30
0
  0
SEQEND
  0
POLYLINE
  8
0
  62
0
  66
1
  10
0
  20
0
 40
0
 41
0
 38
0
  0
VERTEX
  8
0
  10
2.5
  20
-2
  30
0
  0
VERTEX
  8
0
  10
2.5
  20
2
  30
0
  0
SEQEND
  0
POLYLINE
  8
0
  62
0
  66
1
  10
0
  20
0
  70
1
 40
0
 41
0
 38
0
  0
VERTEX
  8
0
  10
-0.833333333333333
  20
2
  30
0
  0
VERTEX
  8
0
  10
0.833333333333333
  20
2
  30
0
  0
VERTEX
  8
0
  10
0
  20
1
  30
0
  0
SEQEND
  0
POLYLINE
  8
0
  62
0
  66
1
  10
0
  20
0
 40
0
 41
0
 38
0
  0
VERTEX
  8
0
  10
-2.5
  20
1
  30
0
  0
VERTEX
  8
0
  10
2.5
  20
1
  30
0
  0
SEQEND
  0
POLYLINE
  8
0
  62
0
  66
1
  10
0
  20
0
 40
0
 41
0
 38
0
  0
VERTEX
  8
0
  10
-0.416666666666667
  20
0.8
  30
0
  0
VERTEX
  8
0
  10
0.416666666666667
  20
0.8
  30
0
  0
SEQEND
  0
ARC
  8
0
  62
0
  10
0
  20
2
  40
2.5
  50
0
  51
180
  0
ARC
  8
0
  62
0
  10
0
  20
-2
  40
2.5
  50
180
  51
360
  0
ENDBLK
  0
BLOCK
  8
0
  2
RUPTUREDISK
  70
64
  10
0
  20
0
  30
0
  0
POLYLINE
  8
0
  62
0
  66
1
  10
0
  20
0
  70
1
 40
0
 41
0
 38
0
  0
VERTEX
  8
0
  10
2
  20
3
  30
0
  0
VERTEX
  8
0
  10
-2
  20
3
  30
0
  0
VERTEX
  8
0
  10
-2
  20
-3
  30
0
  0
VERTEX
  8
0
  10
2
  20
-3
  30
0
  0
SEQEND
  0
POLYLINE
  8
0
  62
0
  66
1
  10
0
  20
0
 40
0
 41
0
 38
0
  0
VERTEX
  8
0
  10
-3
  20
0
  30
0
  0
VERTEX
  8
0
  10
-2
  20
0
  30
0
  0
SEQEND
  0
POLYLINE
  8
0
  62
0
  66
1
  10
0
  20
0
 40
0
 41
0
 38
0
  0
VERTEX
  8
0
  10
2
  20
0
  30
0
  0
VERTEX
  8
0
  10
3
  20
1
  30
0
  0
SEQEND
  0
POLYLINE
  8
0
  62
0
  66
1
  10
0
  20
0
 40
0
 41
0
 38
0
  0
VERTEX
  8
0
  10
2
  20
0
  30
0
  0
VERTEX
  8
0
  10
3
  20
-1
  30
0
  0
SEQEND
  0
POLYLINE
  8
0
  62
0
  66
1
  10
0
  20
0
 40
0
 41
0
 38
0
  0
VERTEX
  8
0
  10
2
  20
0
  30
0
  0
VERTEX
  8
0
  10
3
  20
0
  30
0
  0
SEQEND
  0
POLYLINE
  8
0
  62
0
  66
1
  10
0
  20
0
 40
0
 41
0
 38
0
  0
VERTEX
  8
0
  10
0
  20
3
  30
0
  0
VERTEX
  8
0
  10
0
  20
1.8
  30
0
  0
SEQEND
  0
POLYLINE
  8
0
  62
0
  66
1
  10
0
  20
0
 40
0
 41
0
 38
0
  0
VERTEX
  8
0
  10
0
  20
0.6
  30
0
  0
VERTEX
  8
0
  10
0
  20
-0.6
  30
0
  0
SEQEND
  0
POLYLINE
  8
0
  62
0
  66
1
  10
0
  20
0
 40
0
 41
0
 38
0
  0
VERTEX
  8
0
  10
0
  20
-1.8
  30
0
  0
VERTEX
  8
0
  10
0
  20
-3
  30
0
  0
SEQEND
  0
ENDBLK
  0
BLOCK
  8
0
  2
TURBINE
  70
64
  10
0
  20
0
  30
0
  0
ARC
  8
0
  62
0
  10
0
  20
0
  40
2.5
  50
150
  51
270
  0
ARC
  8
0
  62
0
  10
0
  20
0
  40
2.5
  50
330
  51
450
  0
POLYLINE
  8
0
  62
0
  66
1
  10
0
  20
0
 40
0
 41
0
 38
0
  0
VERTEX
  8
0
  10
0
  20
2.5
  30
0
  0
VERTEX
  8
0
  10
-3
  20
2.5
  30
0
  0
VERTEX
  8
0
  10
-3
  20
0.833333333333333
  30
0
  0
VERTEX
  8
0
  10
-2.41666666666667
  20
0.833333333333333
  30
0
  0
SEQEND
  0
POLYLINE
  8
0
  62
0
  66
1
  10
0
  20
0
 40
0
 41
0
 38
0
  0
VERTEX
  8
0
  10
0
  20
-2.5
  30
0
  0
VERTEX
  8
0
  10
3
  20
-2.5
  30
0
  0
VERTEX
  8
0
  10
3
  20
-0.833333333333333
  30
0
  0
VERTEX
  8
0
  10
2.41666666666667
  20
-0.833333333333333
  30
0
  0
SEQEND
  0
CIRCLE
  8
0
  62
0
  10
0
  20
0
  40
0.25
  0
ENDBLK
  0
BLOCK
  8
0
  2
PERIODIC
  70
64
  10
0
  20
0
  30
0
  0
POLYLINE
  8
0
  62
0
  66
1
  10
0
  20
0
 40
0
 41
0
 38
0
  0
VERTEX
  8
0
  10
-3
  20
0
  30
0
  0
VERTEX
  8
0
  10
-2.25
  20
3
  30
0
  0
VERTEX
  8
0
  10
-0.75
  20
-3
  30
0
  0
VERTEX
  8
0
  10
0.75
  20
3
  30
0
  0
VERTEX
  8
0
  10
2.25
  20
-3
  30
0
  0
VERTEX
  8
0
  10
3
  20
0
  30
0
  0
SEQEND
  0
ENDBLK
  0
BLOCK
  8
0
  2
HAMMERMANHOLE
  70
64
  10
0
  20
0
  30
0
  0
POLYLINE
  8
0
  62
0
  66
1
  10
0
  20
0
 40
0
 41
0
 38
0
  0
VERTEX
  8
0
  10
3
  20
-2.625
  30
0
  0
VERTEX
  8
0
  10
3
  20
1
  30
0
  0
SEQEND
  0
POLYLINE
  8
0
  62
0
  66
1
  10
0
  20
0
 40
0
 41
0
 38
0
  0
VERTEX
  8
0
  10
-0.75
  20
-2.625
  30
0
  0
VERTEX
  8
0
  10
-0.75
  20
1
  30
0
  0
SEQEND
  0
POLYLINE
  8
0
  62
0
  66
1
  10
0
  20
0
 40
0
 41
0
 38
0
  0
VERTEX
  8
0
  10
-0.75
  20
-2.25
  30
0
  0
VERTEX
  8
0
  10
-3
  20
-2.25
  30
0
  0
SEQEND
  0
POLYLINE
  8
0
  62
0
  66
1
  10
0
  20
0
 40
0
 41
0
 38
0
  0
VERTEX
  8
0
  10
-0.75
  20
1
  30
0
  0
VERTEX
  8
0
  10
0
  20
2.625
  30
0
  0
SEQEND
  0
POLYLINE
  8
0
  62
0
  66
1
  10
0
  20
0
 40
0
 41
0
 38
0
  0
VERTEX
  8
0
  10
3
  20
1
  30
0
  0
VERTEX
  8
0
  10
2.625
  20
2.625
  30
0
  0
SEQEND
  0
POLYLINE
  8
0
  62
0
  66
1
  10
0
  20
0
 40
0
 41
0
 38
0
  0
VERTEX
  8
0
  10
-0.75
  20
-2.625
  30
0
  0
VERTEX
  8
0
  10
-0.726915638615883
  20
-2.68366292439009
  30
0
  0
VERTEX
  8
0
  10
-0.658230968053413
  20
-2.74088137289061
  30
0
  0
VERTEX
  8
0
  10
-0.54563723285319
  20
-2.79524643740233
  30
0
  0
VERTEX
  8
0
  10
-0.391906864453027
  20
-2.84541946960968
  30
0
  0
VERTEX
  8
0
  10
-0.200825214724777
  20
-2.89016504294496
  30
0
  0
VERTEX
  8
0
  10
0.0229026519516127
  20
-2.92838137289061
  30
0
  0
VERTEX
  8
0
  10
0.27376781298835
  20
-2.95912744657064
  30
0
  0
VERTEX
  8
0
  10
0.545593135546973
  20
-2.98164619361068
  30
0
  0
VERTEX
  8
0
  10
0.831685378049567
  20
-2.99538312772318
  30
0
  0
VERTEX
  8
0
  10
1.125
  20
-3
  30
0
  0
VERTEX
  8
0
  10
1.41831462195043
  20
-2.99538312772318
  30
0
  0
VERTEX
  8
0
  10
1.70440686445303
  20
-2.98164619361068
  30
0
  0
VERTEX
  8
0
  10
1.97623218701165
  20
-2.95912744657064
  30
0
  0
VERTEX
  8
0
  10
2.22709734804839
  20
-2.92838137289061
  30
0
  0
VERTEX
  8
0
  10
2.45082521472478
  20
-2.89016504294496
  30
0
  0
VERTEX
  8
0
  10
2.64190686445303
  20
-2.84541946960968
  30
0
  0
VERTEX
  8
0
  10
2.79563723285319
  20
-2.79524643740233
  30
0
  0
VERTEX
  8
0
  10
2.90823096805341
  20
-2.74088137289061
  30
0
  0
VERTEX
  8
0
  10
2.97691563861588
  20
-2.68366292439009
  30
0
  0
SEQEND
  0
POLYLINE
  8
0
  62
0
  66
1
  10
0
  20
0
 40
0
 41
0
 38
0
  0
VERTEX
  8
0
  10
-0.75
  20
1
  30
0
  0
VERTEX
  8
0
  10
-0.726915638615883
  20
0.941337075609914
  30
0
  0
VERTEX
  8
0
  10
-0.658230968053413
  20
0.884118627109395
  30
0
  0
VERTEX
  8
0
  10
-0.54563723285319
  20
0.82975356259767
  30
0
  0
VERTEX
  8
0
  10
-0.391906864453027
  20
0.779580530390323
  30
0
  0
VERTEX
  8
0
  10
-0.200825214724777
  20
0.734834957055045
  30
0
  0
VERTEX
  8
0
  10
0.0229026519516127
  20
0.696618627109395
  30
0
  0
VERTEX
  8
0
  10
0.27376781298835
  20
0.665872553429362
  30
0
  0
VERTEX
  8
0
  10
0.545593135546973
  20
0.643353806389317
  30
0
  0
VERTEX
  8
0
  10
0.831685378049567
  20
0.629616872276823
  30
0
  0
VERTEX
  8
0
  10
1.125
  20
0.625
  30
0
  0
VERTEX
  8
0
  10
1.41831462195043
  20
0.629616872276823
  30
0
  0
VERTEX
  8
0
  10
1.70440686445303
  20
0.643353806389317
  30
0
  0
VERTEX
  8
0
  10
1.97623218701165
  20
0.665872553429362
  30
0
  0
VERTEX
  8
0
  10
2.22709734804839
  20
0.696618627109395
  30
0
  0
VERTEX
  8
0
  10
2.45082521472478
  20
0.734834957055045
  30
0
  0
VERTEX
  8
0
  10
2.64190686445303
  20
0.779580530390322
  30
0
  0
VERTEX
  8
0
  10
2.79563723285319
  20
0.82975356259767
  30
0
  0
VERTEX
  8
0
  10
2.90823096805341
  20
0.884118627109395
  30
0
  0
VERTEX
  8
0
  10
2.97691563861588
  20
0.941337075609913
  30
0
  0
SEQEND
  0
POLYLINE
  8
0
  62
0
  66
1
  10
0
  20
0
  70
1
 40
0
 41
0
 38
0
  0
VERTEX
  8
0
  10
2.625
  20
2.625
  30
0
  0
VERTEX
  8
0
  10
2.60884094703112
  20
2.68366292439009
  30
0
  0
VERTEX
  8
0
  10
2.56076167763739
  20
2.74088137289061
  30
0
  0
VERTEX
  8
0
  10
2.48194606299723
  20
2.79524643740233
  30
0
  0
VERTEX
  8
0
  10
2.37433480511712
  20
2.84541946960968
  30
0
  0
VERTEX
  8
0
  10
2.24057765030734
  20
2.89016504294496
  30
0
  0
VERTEX
  8
0
  10
2.08396814363387
  20
2.92838137289061
  30
0
  0
VERTEX
  8
0
  10
1.90836253090816
  20
2.95912744657064
  30
0
  0
VERTEX
  8
0
  10
1.71808480511712
  20
2.98164619361068
  30
0
  0
VERTEX
  8
0
  10
1.5178202353653
  20
2.99538312772318
  30
0
  0
VERTEX
  8
0
  10
1.3125
  20
3
  30
0
  0
VERTEX
  8
0
  10
1.1071797646347
  20
2.99538312772318
  30
0
  0
VERTEX
  8
0
  10
0.906915194882882
  20
2.98164619361068
  30
0
  0
VERTEX
  8
0
  10
0.716637469091845
  20
2.95912744657064
  30
0
  0
VERTEX
  8
0
  10
0.541031856366129
  20
2.92838137289061
  30
0
  0
VERTEX
  8
0
  10
0.384422349692656
  20
2.89016504294496
  30
0
  0
VERTEX
  8
0
  10
0.250665194882882
  20
2.84541946960968
  30
0
  0
VERTEX
  8
0
  10
0.143053937002767
  20
2.79524643740233
  30
0
  0
VERTEX
  8
0
  10
0.0642383223626111
  20
2.74088137289061
  30
0
  0
VERTEX
  8
0
  10
0.0161590529688818
  20
2.68366292439009
  30
0
  0
VERTEX
  8
0
  10
0
  20
2.625
  30
0
  0
VERTEX
  8
0
  10
0.0161590529688818
  20
2.56633707560991
  30
0
  0
VERTEX
  8
0
  10
0.0642383223626108
  20
2.50911862710939
  30
0
  0
VERTEX
  8
0
  10
0.143053937002767
  20
2.45475356259767
  30
0
  0
VERTEX
  8
0
  10
0.250665194882881
  20
2.40458053039032
  30
0
  0
VERTEX
  8
0
  10
0.384422349692656
  20
2.35983495705504
  30
0
  0
VERTEX
  8
0
  10
0.541031856366129
  20
2.32161862710939
  30
0
  0
VERTEX
  8
0
  10
0.716637469091845
  20
2.29087255342936
  30
0
  0
VERTEX
  8
0
  10
0.906915194882881
  20
2.26835380638932
  30
0
  0
VERTEX
  8
0
  10
1.1071797646347
  20
2.25461687227682
  30
0
  0
VERTEX
  8
0
  10
1.3125
  20
2.25
  30
0
  0
VERTEX
  8
0
  10
1.5178202353653
  20
2.25461687227682
  30
0
  0
VERTEX
  8
0
  10
1.71808480511712
  20
2.26835380638932
  30
0
  0
VERTEX
  8
0
  10
1.90836253090816
  20
2.29087255342936
  30
0
  0
VERTEX
  8
0
  10
2.08396814363387
  20
2.32161862710939
  30
0
  0
VERTEX
  8
0
  10
2.24057765030734
  20
2.35983495705504
  30
0
  0
VERTEX
  8
0
  10
2.37433480511712
  20
2.40458053039032
  30
0
  0
VERTEX
  8
0
  10
2.48194606299723
  20
2.45475356259767
  30
0
  0
VERTEX
  8
0
  10
2.56076167763739
  20
2.50911862710939
  30
0
  0
VERTEX
  8
0
  10
2.60884094703112
  20
2.56633707560991
  30
0
  0
SEQEND
  0
ENDBLK
  0
BLOCK
  8
0
  2
ORIFICE
  70
64
  10
0
  20
0
  30
0
  0
POLYLINE
  8
0
  62
0
  66
1
  10
0
  20
0
 40
0
 41
0
 38
0
  0
VERTEX
  8
0
  10
2.5
  20
0.6
  30
0
  0
VERTEX
  8
0
  10
1.66666666666667
  20
0.6
  30
0
  0
VERTEX
  8
0
  10
1.66666666666667
  20
3
  30
0
  0
VERTEX
  8
0
  10
-1.66666666666667
  20
3
  30
0
  0
VERTEX
  8
0
  10
-1.66666666666667
  20
0.6
  30
0
  0
VERTEX
  8
0
  10
-2.5
  20
0.6
  30
0
  0
SEQEND
  0
POLYLINE
  8
0
  62
0
  66
1
  10
0
  20
0
 40
0
 41
0
 38
0
  0
VERTEX
  8
0
  10
2.5
  20
-0.6
  30
0
  0
VERTEX
  8
0
  10
1.66666666666667
  20
-0.6
  30
0
  0
VERTEX
  8
0
  10
1.66666666666667
  20
-3
  30
0
  0
VERTEX
  8
0
  10
-1.66666666666667
  20
-3
  30
0
  0
VERTEX
  8
0
  10
-1.66666666666667
  20
-0.6
  30
0
  0
VERTEX
  8
0
  10
-2.5
  20
-0.6
  30
0
  0
SEQEND
  0
POLYLINE
  8
0
  62
0
  66
1
  10
0
  20
0
 40
0
 41
0
 38
0
  0
VERTEX
  8
0
  10
0
  20
3
  30
0
  0
VERTEX
  8
0
  10
0
  20
1
  30
0
  0
SEQEND
  0
POLYLINE
  8
0
  62
0
  66
1
  10
0
  20
0
 40
0
 41
0
 38
0
  0
VERTEX
  8
0
  10
0
  20
-3
  30
0
  0
VERTEX
  8
0
  10
0
  20
-1
  30
0
  0
SEQEND
  0
ENDBLK
  0
BLOCK
  8
0
  2
HAMMERVALVETOATMOSPHERE
  70
64
  10
0
  20
0
  30
0
  0
POLYLINE
  8
0
  62
0
  66
1
  10
0
  20
0
  70
1
 40
0
 41
0
 38
0
  0
VERTEX
  8
0
  10
-3
  20
3
  30
0
  0
VERTEX
  8
0
  10
-3
  20
-3
  30
0
  0
VERTEX
  8
0
  10
0
  20
0
  30
0
  0
SEQEND
  0
POLYLINE
  8
0
  62
0
  66
1
  10
0
  20
0
  70
1
 40
0
 41
0
 38
0
  0
VERTEX
  8
0
  10
0
  20
0
  30
0
  0
VERTEX
  8
0
  10
3
  20
3
  30
0
  0
VERTEX
  8
0
  10
3
  20
-3
  30
0
  0
SEQEND
  0
POLYLINE
  8
0
  62
0
  66
1
  10
0
  20
0
 40
0
 41
0
 38
0
  0
VERTEX
  8
0
  10
3
  20
0
  30
0
  0
VERTEX
  8
0
  10
4.5
  20
0
  30
0
  0
SEQEND
  0
POLYLINE
  8
0
  62
0
  66
1
  10
0
  20
0
 40
0
 41
0
 38
0
  0
VERTEX
  8
0
  10
-3
  20
0
  30
0
  0
VERTEX
  8
0
  10
-4.5
  20
0
  30
0
  0
SEQEND
  0
POLYLINE
  8
0
  62
0
  66
1
  10
0
  20
0
 40
0
 41
0
 38
0
  0
VERTEX
  8
0
  10
4.5
  20
0.75
  30
0
  0
VERTEX
  8
0
  10
3.75
  20
0
  30
0
  0
VERTEX
  8
0
  10
4.5
  20
-0.75
  30
0
  0
SEQEND
  0
ENDBLK
  0
BLOCK
  8
0
  2
HAMMERCHECKVALVE
  70
64
  10
0
  20
0
  30
0
  0
POLYLINE
  8
0
  62
0
  66
1
  10
0
  20
0
 40
0
 41
0
 38
0
  0
VERTEX
  8
0
  10
3
  20
0.6
  30
0
  0
VERTEX
  8
0
  10
2
  20
0.6
  30
0
  0
VERTEX
  8
0
  10
2
  20
3
  30
0
  0
VERTEX
  8
0
  10
-2
  20
3
  30
0
  0
VERTEX
  8
0
  10
-2
  20
0.6
  30
0
  0
VERTEX
  8
0
  10
-3
  20
0.6
  30
0
  0
SEQEND
  0
POLYLINE
  8
0
  62
0
  66
1
  10
0
  20
0
 40
0
 41
0
 38
0
  0
VERTEX
  8
0
  10
3
  20
-0.6
  30
0
  0
VERTEX
  8
0
  10
2
  20
-0.6
  30
0
  0
VERTEX
  8
0
  10
2
  20
-3
  30
0
  0
VERTEX
  8
0
  10
-2
  20
-3
  30
0
  0
VERTEX
  8
0
  10
-2
  20
-0.6
  30
0
  0
VERTEX
  8
0
  10
-3
  20
-0.6
  30
0
  0
SEQEND
  0
POLYLINE
  8
0
  62
0
  66
1
  10
0
  20
0
 40
0
 41
0
 38
0
  0
VERTEX
  8
0
  10
-1.5
  20
2
  30
0
  0
VERTEX
  8
0
  10
1.5
  20
0
  30
0
  0
SEQEND
  0
POLYLINE
  8
0
  62
0
  66
1
  10
0
  20
0
 40
0
 41
0
 38
0
  0
VERTEX
  8
0
  10
-1.5
  20
-2
  30
0
  0
VERTEX
  8
0
  10
1.5
  20
0
  30
0
  0
SEQEND
  0
ENDBLK
  0
BLOCK
  8
0
  2
SURGETANK
  70
64
  10
0
  20
0
  30
0
  0
POLYLINE
  8
0
  62
0
  66
1
  10
0
  20
0
 40
0
 41
0
 38
0
  0
VERTEX
  8
0
  10
-2.5
  20
3.25
  30
0
  0
VERTEX
  8
0
  10
-2.5
  20
-2
  30
0
  0
SEQEND
  0
POLYLINE
  8
0
  62
0
  66
1
  10
0
  20
0
 40
0
 41
0
 38
0
  0
VERTEX
  8
0
  10
2.5
  20
-2
  30
0
  0
VERTEX
  8
0
  10
2.5
  20
3.25
  30
0
  0
SEQEND
  0
POLYLINE
  8
0
  62
0
  66
1
  10
0
  20
0
  70
1
 40
0
 41
0
 38
0
  0
VERTEX
  8
0
  10
-0.833333333333333
  20
2
  30
0
  0
VERTEX
  8
0
  10
0.833333333333333
  20
2
  30
0
  0
VERTEX
  8
0
  10
0
  20
1
  30
0
  0
SEQEND
  0
POLYLINE
  8
0
  62
0
  66
1
  10
0
  20
0
 40
0
 41
0
 38
0
  0
VERTEX
  8
0
  10
-2.5
  20
1
  30
0
  0
VERTEX
  8
0
  10
2.5
  20
1
  30
0
  0
SEQEND
  0
POLYLINE
  8
0
  62
0
  66
1
  10
0
  20
0
 40
0
 41
0
 38
0
  0
VERTEX
  8
0
  10
-0.416666666666667
  20
0.8
  30
0
  0
VERTEX
  8
0
  10
0.416666666666667
  20
0.8
  30
0
  0
SEQEND
  0
POLYLINE
  8
0
  62
0
  66
1
  10
0
  20
0
 40
0
 41
0
 38
0
  0
VERTEX
  8
0
  10
-2.5
  20
3.25
  30
0
  0
VERTEX
  8
0
  10
2.5
  20
3.25
  30
0
  0
SEQEND
  0
ARC
  8
0
  62
0
  10
0
  20
-2
  40
2.5
  50
180
  51
360
  0
ENDBLK
  0
BLOCK
  8
0
  2
VALVEWITHLINEARAREACHANGE
  70
64
  10
0
  20
0
  30
0
  0
POLYLINE
  8
0
  62
0
  66
1
  10
0
  20
0
  70
1
 40
0
 41
0
 38
0
  0
VERTEX
  8
0
  10
-3
  20
3
  30
0
  0
VERTEX
  8
0
  10
-3
  20
-3
  30
0
  0
VERTEX
  8
0
  10
0
  20
0
  30
0
  0
SEQEND
  0
POLYLINE
  8
0
  62
0
  66
1
  10
0
  20
0
  70
1
 40
0
 41
0
 38
0
  0
VERTEX
  8
0
  10
0
  20
0
  30
0
  0
VERTEX
  8
0
  10
3
  20
3
  30
0
  0
VERTEX
  8
0
  10
3
  20
-3
  30
0
  0
SEQEND
  0
POLYLINE
  8
0
  62
0
  66
1
  10
0
  20
0
 40
0
 41
0
 38
0
  0
VERTEX
  8
0
  10
-0.9
  20
0.9
  30
0
  0
VERTEX
  8
0
  10
-0.9
  20
3.6
  30
0
  0
VERTEX
  8
0
  10
0.9
  20
3.6
  30
0
  0
VERTEX
  8
0
  10
0.9
  20
0.9
  30
0
  0
SEQEND
  0
ENDBLK
  0
BLOCK
  8
0
  2
HEADWALL
  70
64
  10
0
  20
0
  30
0
  0
POLYLINE
  8
0
  62
0
  66
1
  10
0
  20
0
 40
0
 41
0
 38
0
  0
VERTEX
  8
0
  10
-1.2
  20
-3
  30
0
  0
VERTEX
  8
0
  10
2
  20
-0.75
  30
0
  0
SEQEND
  0
POLYLINE
  8
0
  62
0
  66
1
  10
0
  20
0
 40
0
 41
0
 38
0
  0
VERTEX
  8
0
  10
-1.2
  20
3
  30
0
  0
VERTEX
  8
0
  10
2
  20
0.75
  30
0
  0
SEQEND
  0
POLYLINE
  8
0
  62
0
  66
1
  10
0
  20
0
 40
0
 41
0
 38
0
  0
VERTEX
  8
0
  10
2
  20
-0.75
  30
0
  0
VERTEX
  8
0
  10
2
  20
0.75
  30
0
  0
SEQEND
  0
ENDBLK
  0
BLOCK
  8
0
  2
CUSTOMER
  70
64
  10
0
  20
0
  30
0
  0
POLYLINE
  8
0
  62
0
  66
1
  10
0
  20
0
  70
1
 40
0
 41
0
 38
0
  0
VERTEX
  8
0
  10
-3.5
  20
-0.416363501240312
  30
0
  0
VERTEX
  8
0
  10
-2.86421257159897
  20
-0.416363501240312
  30
0
  0
VERTEX
  8
0
  10
-2.86421257159897
  20
-3.25
  30
0
  0
VERTEX
  8
0
  10
2.86421257159901
  20
-3.25
  30
0
  0
VERTEX
  8
0
  10
2.86421257159901
  20
-0.416363501240312
  30
0
  0
VERTEX
  8
0
  10
3.5
  20
-0.416363501240312
  30
0
  0
VERTEX
  8
0
  10
-4.44089209850063E-16
  20
3.25
  30
0
  0
VERTEX
  8
0
  10
-1.32484963526635
  20
1.86217704360794
  30
0
  0
VERTEX
  8
0
  10
-1.32484963526635
  20
2.72722580882371
  30
0
  0
VERTEX
  8
0
  10
-2.4866329834419
  20
2.72722580882371
  30
0
  0
VERTEX
  8
0
  10
-2.4866329834419
  20
0.645171311008057
  30
0
  0
VERTEX
  8
0
  10
-3.5
  20
-0.416363501240312
  30
0
  0
SEQEND
  0
ENDBLK
  0
BLOCK
  8
0
  2
SCADAELEMENT
  70
64
  10
0
  20
0
  30
0
  0
POLYLINE
  8
0
  62
0
  66
1
  10
0
  20
0
  70
1
 40
0
 41
0
 38
0
  0
VERTEX
  8
0
  10
0
  20
1.91713567364732
  30
0
  0
VERTEX
  8
0
  10
0
  20
3
  30
0
  0
VERTEX
  8
0
  10
-3
  20
3
  30
0
  0
VERTEX
  8
0
  10
-3
  20
-3
  30
0
  0
VERTEX
  8
0
  10
0
  20
-3
  30
0
  0
VERTEX
  8
0
  10
0
  20
-2.1340323576012
  30
0
  0
VERTEX
  8
0
  10
-0.0470106955888369
  20
-2.13157925918268
  30
0
  0
VERTEX
  8
0
  10
-0.0962996436561475
  20
-2.1236469929938
  30
0
  0
VERTEX
  8
0
  10
-0.157075664359468
  20
-2.1058392813787
  30
0
  0
VERTEX
  8
0
  10
-0.211430333113993
  20
-2.08148920344326
  30
0
  0
VERTEX
  8
0
  10
-0.267417489093601
  20
-2.04635717020209
  30
0
  0
VERTEX
  8
0
  10
-0.319371867148948
  20
-2.00174462783641
  30
0
  0
VERTEX
  8
0
  10
-0.364794028965477
  20
-1.9486847575277
  30
0
  0
VERTEX
  8
0
  10
-0.403455377481408
  20
-1.88540101143776
  30
0
  0
VERTEX
  8
0
  10
-0.430728785009296
  20
-1.81827472323902
  30
0
  0
VERTEX
  8
0
  10
-0.446634311574839
  20
-1.74956139057942
  30
0
  0
VERTEX
  8
0
  10
-0.451659596913739
  20
-1.68237379650271
  30
0
  0
VERTEX
  8
0
  10
-0.447433781104369
  20
-1.62073456989659
  30
0
  0
VERTEX
  8
0
  10
-0.433947779947748
  20
-1.55713131540958
  30
0
  0
VERTEX
  8
0
  10
-0.417451820945673
  20
-1.50994903665787
  30
0
  0
VERTEX
  8
0
  10
-0.381184020544528
  20
-1.44010331137
  30
0
  0
VERTEX
  8
0
  10
-0.333817041535503
  20
-1.37813321712754
  30
0
  0
VERTEX
  8
0
  10
-0.272718254106163
  20
-1.32234494396277
  30
0
  0
VERTEX
  8
0
  10
-0.199696946734622
  20
-1.27726023344212
  30
0
  0
VERTEX
  8
0
  10
-0.127801432038139
  20
-1.24917347962975
  30
0
  0
VERTEX
  8
0
  10
-0.0607889535933684
  20
-1.23482459823981
  30
0
  0
VERTEX
  8
0
  10
0
  20
-1.23071523540422
  30
0
  0
VERTEX
  8
0
  10
0
  20
-0.363822893396559
  30
0
  0
VERTEX
  8
0
  10
-0.131810444754927
  20
-0.369643186971265
  30
0
  0
VERTEX
  8
0
  10
-0.290889092899581
  20
-0.390907614678772
  30
0
  0
VERTEX
  8
0
  10
-0.429610074221232
  20
-0.422636941976737
  30
0
  0
VERTEX
  8
0
  10
-0.618129086537295
  20
-0.486914180685657
  30
0
  0
VERTEX
  8
0
  10
-0.802933831932317
  20
-0.576531309425407
  30
0
  0
VERTEX
  8
0
  10
-0.977500260864244
  20
-0.690209230456477
  30
0
  0
VERTEX
  8
0
  10
-1.16048062480929
  20
-0.848797248862784
  30
0
  0
VERTEX
  8
0
  10
-1.64221425968752
  20
-0.339889178679556
  30
0
  0
VERTEX
  8
0
  10
-1.50453897027223
  20
-0.214398379162644
  30
0
  0
VERTEX
  8
0
  10
-1.32495568844728
  20
-0.0775044464974532
  30
0
  0
VERTEX
  8
0
  10
-1.11956364660338
  20
0.0489310143144967
  30
0
  0
VERTEX
  8
0
  10
-0.881889754123368
  20
0.162072751648919
  30
0
  0
VERTEX
  8
0
  10
-0.628510132863042
  20
0.249169355825186
  30
0
  0
VERTEX
  8
0
  10
-0.416488505020075
  20
0.298277328780763
  30
0
  0
VERTEX
  8
0
  10
-0.176226244063866
  20
0.329588671143345
  30
0
  0
VERTEX
  8
0
  10
0
  20
0.336707859893276
  30
0
  0
VERTEX
  8
0
  10
0
  20
1.12849827746807
  30
0
  0
VERTEX
  8
0
  10
-0.339795421590807
  20
1.10861646787871
  30
0
  0
VERTEX
  8
0
  10
-0.649142654152356
  20
1.05786613057046
  30
0
  0
VERTEX
  8
0
  10
-1.04695817261463
  20
0.944111446587548
  30
0
  0
VERTEX
  8
0
  10
-1.37773988568312
  20
0.803576921692814
  30
0
  0
VERTEX
  8
0
  10
-1.65643212604041
  20
0.647720571557876
  30
0
  0
VERTEX
  8
0
  10
-1.92660753965681
  20
0.457498635279747
  30
0
  0
VERTEX
  8
0
  10
-2.18011264302888
  20
0.235231041324221
  30
0
  0
VERTEX
  8
0
  10
-2.72231961956566
  20
0.808023734404429
  30
0
  0
VERTEX
  8
0
  10
-2.46061081470045
  20
1.04029402313579
  30
0
  0
VERTEX
  8
0
  10
-2.21203249610563
  20
1.22606719003666
  30
0
  0
VERTEX
  8
0
  10
-1.93706445438285
  20
1.39881537457675
  30
0
  0
VERTEX
  8
0
  10
-1.51994088981423
  20
1.60562270027602
  30
0
  0
VERTEX
  8
0
  10
-1.10159414430992
  20
1.75566495410494
  30
0
  0
VERTEX
  8
0
  10
-0.73648730022736
  20
1.84496952862765
  30
0
  0
VERTEX
  8
0
  10
-0.311610069279907
  20
1.90371400005568
  30
0
  0
VERTEX
  8
0
  10
0
  20
1.91713567364732
  30
0
  0
SEQEND
  0
POLYLINE
  8
0
  62
0
  66
1
  10
0
  20
0
  70
1
 40
0
 41
0
 38
0
  0
VERTEX
  8
0
  10
0
  20
1.91713567364732
  30
0
  0
VERTEX
  8
0
  10
0
  20
3
  30
0
  0
VERTEX
  8
0
  10
3
  20
3
  30
0
  0
VERTEX
  8
0
  10
3
  20
-3
  30
0
  0
VERTEX
  8
0
  10
0
  20
-3
  30
0
  0
VERTEX
  8
0
  10
0
  20
-2.1340323576012
  30
0
  0
VERTEX
  8
0
  10
0.0470106955888369
  20
-2.13157925918268
  30
0
  0
VERTEX
  8
0
  10
0.0962996436561475
  20
-2.1236469929938
  30
0
  0
VERTEX
  8
0
  10
0.157075664359468
  20
-2.1058392813787
  30
0
  0
VERTEX
  8
0
  10
0.211430333113993
  20
-2.08148920344326
  30
0
  0
VERTEX
  8
0
  10
0.267417489093601
  20
-2.04635717020209
  30
0
  0
VERTEX
  8
0
  10
0.319371867148948
  20
-2.00174462783641
  30
0
  0
VERTEX
  8
0
  10
0.364794028965477
  20
-1.9486847575277
  30
0
  0
VERTEX
  8
0
  10
0.403455377481408
  20
-1.88540101143776
  30
0
  0
VERTEX
  8
0
  10
0.430728785009296
  20
-1.81827472323902
  30
0
  0
VERTEX
  8
0
  10
0.446634311574839
  20
-1.74956139057942
  30
0
  0
VERTEX
  8
0
  10
0.451659596913739
  20
-1.68237379650271
  30
0
  0
VERTEX
  8
0
  10
0.447433781104369
  20
-1.62073456989659
  30
0
  0
VERTEX
  8
0
  10
0.433947779947748
  20
-1.55713131540958
  30
0
  0
VERTEX
  8
0
  10
0.417451820945673
  20
-1.50994903665787
  30
0
  0
VERTEX
  8
0
  10
0.381184020544528
  20
-1.44010331137
  30
0
  0
VERTEX
  8
0
  10
0.333817041535503
  20
-1.37813321712754
  30
0
  0
VERTEX
  8
0
  10
0.272718254106163
  20
-1.32234494396277
  30
0
  0
VERTEX
  8
0
  10
0.199696946734622
  20
-1.27726023344212
  30
0
  0
VERTEX
  8
0
  10
0.127801432038139
  20
-1.24917347962975
  30
0
  0
VERTEX
  8
0
  10
0.0607889535933684
  20
-1.23482459823981
  30
0
  0
VERTEX
  8
0
  10
0
  20
-1.23071523540422
  30
0
  0
VERTEX
  8
0
  10
0
  20
-0.363822893396559
  30
0
  0
VERTEX
  8
0
  10
0.131810444754927
  20
-0.369643186971265
  30
0
  0
VERTEX
  8
0
  10
0.290889092899581
  20
-0.390907614678772
  30
0
  0
VERTEX
  8
0
  10
0.429610074221232
  20
-0.422636941976737
  30
0
  0
VERTEX
  8
0
  10
0.618129086537295
  20
-0.486914180685657
  30
0
  0
VERTEX
  8
0
  10
0.802933831932317
  20
-0.576531309425407
  30
0
  0
VERTEX
  8
0
  10
0.977500260864244
  20
-0.690209230456477
  30
0
  0
VERTEX
  8
0
  10
1.16048062480929
  20
-0.848797248862784
  30
0
  0
VERTEX
  8
0
  10
1.64221425968752
  20
-0.339889178679556
  30
0
  0
VERTEX
  8
0
  10
1.50453897027223
  20
-0.214398379162644
  30
0
  0
VERTEX
  8
0
  10
1.32495568844728
  20
-0.0775044464974532
  30
0
  0
VERTEX
  8
0
  10
1.11956364660338
  20
0.0489310143144967
  30
0
  0
VERTEX
  8
0
  10
0.881889754123368
  20
0.162072751648919
  30
0
  0
VERTEX
  8
0
  10
0.628510132863042
  20
0.249169355825186
  30
0
  0
VERTEX
  8
0
  10
0.416488505020075
  20
0.298277328780763
  30
0
  0
VERTEX
  8
0
  10
0.176226244063866
  20
0.329588671143345
  30
0
  0
VERTEX
  8
0
  10
0
  20
0.336707859893276
  30
0
  0
VERTEX
  8
0
  10
0
  20
1.12849827746807
  30
0
  0
VERTEX
  8
0
  10
0.339795421590807
  20
1.10861646787871
  30
0
  0
VERTEX
  8
0
  10
0.649142654152356
  20
1.05786613057046
  30
0
  0
VERTEX
  8
0
  10
1.04695817261463
  20
0.944111446587548
  30
0
  0
VERTEX
  8
0
  10
1.37773988568312
  20
0.803576921692814
  30
0
  0
VERTEX
  8
0
  10
1.65643212604041
  20
0.647720571557876
  30
0
  0
VERTEX
  8
0
  10
1.92660753965681
  20
0.457498635279747
  30
0
  0
VERTEX
  8
0
  10
2.18011264302888
  20
0.235231041324221
  30
0
  0
VERTEX
  8
0
  10
2.72231961956566
  20
0.808023734404429
  30
0
  0
VERTEX
  8
0
  10
2.46061081470045
  20
1.04029402313579
  30
0
  0
VERTEX
  8
0
  10
2.21203249610563
  20
1.22606719003666
  30
0
  0
VERTEX
  8
0
  10
1.93706445438285
  20
1.39881537457675
  30
0
  0
VERTEX
  8
0
  10
1.51994088981423
  20
1.60562270027602
  30
0
  0
VERTEX
  8
0
  10
1.10159414430992
  20
1.75566495410494
  30
0
  0
VERTEX
  8
0
  10
0.73648730022736
  20
1.84496952862765
  30
0
  0
VERTEX
  8
0
  10
0.311610069279907
  20
1.90371400005568
  30
0
  0
VERTEX
  8
0
  10
0
  20
1.91713567364732
  30
0
  0
SEQEND
  0
ENDBLK
  0
BLOCK
  8
0
  2
TAPNODE
  70
64
  10
0
  20
0
  30
0
  0
CIRCLE
  8
0
  62
0
  10
0
  20
0
  40
1.2
  0
ENDBLK
  0
BLOCK
  8
0
  2
FIRE
  70
64
  10
0
  20
0
  30
0
  0
POLYLINE
  8
0
  62
0
  66
1
  10
0
  20
0
  70
1
 40
0
 41
0
 38
0
  0
VERTEX
  8
0
  10
3.14
  20
0.06
  30
0
  0
VERTEX
  8
0
  10
3.1
  20
0.2
  30
0
  0
VERTEX
  8
0
  10
3.02
  20
0.46
  30
0
  0
VERTEX
  8
0
  10
2.98
  20
0.62
  30
0
  0
VERTEX
  8
0
  10
2.92
  20
0.9
  30
0
  0
VERTEX
  8
0
  10
2.86
  20
1.28
  30
0
  0
VERTEX
  8
0
  10
2.82
  20
1.56
  30
0
  0
VERTEX
  8
0
  10
2.82
  20
1.74
  30
0
  0
VERTEX
  8
0
  10
2.86
  20
2.14
  30
0
  0
VERTEX
  8
0
  10
2.94
  20
2.42
  30
0
  0
VERTEX
  8
0
  10
3
  20
2.64
  30
0
  0
VERTEX
  8
0
  10
3.12
  20
2.8
  30
0
  0
VERTEX
  8
0
  10
3.16
  20
2.84
  30
0
  0
VERTEX
  8
0
  10
2.96
  20
2.78
  30
0
  0
VERTEX
  8
0
  10
2.8
  20
2.72
  30
0
  0
VERTEX
  8
0
  10
2.46
  20
2.52
  30
0
  0
VERTEX
  8
0
  10
2.22
  20
2.34
  30
0
  0
VERTEX
  8
0
  10
2.06
  20
2.2
  30
0
  0
VERTEX
  8
0
  10
1.92
  20
2.04
  30
0
  0
VERTEX
  8
0
  10
1.66
  20
1.7
  30
0
  0
VERTEX
  8
0
  10
1.54
  20
1.5
  30
0
  0
VERTEX
  8
0
  10
1.4
  20
1.12
  30
0
  0
VERTEX
  8
0
  10
1.32
  20
0.76
  30
0
  0
VERTEX
  8
0
  10
1.32
  20
0.54
  30
0
  0
VERTEX
  8
0
  10
1.36
  20
0.38
  30
0
  0
VERTEX
  8
0
  10
1.06
  20
0.64
  30
0
  0
VERTEX
  8
0
  10
0.76
  20
0.96
  30
0
  0
VERTEX
  8
0
  10
0.44
  20
1.32
  30
0
  0
VERTEX
  8
0
  10
0.16
  20
1.7
  30
0
  0
VERTEX
  8
0
  10
0.06
  20
1.86
  30
0
  0
VERTEX
  8
0
  10
0
  20
1.96
  30
0
  0
VERTEX
  8
0
  10
-0.06
  20
2.04
  30
0
  0
VERTEX
  8
0
  10
-0.28
  20
2.52
  30
0
  0
VERTEX
  8
0
  10
-0.58
  20
3.42
  30
0
  0
VERTEX
  8
0
  10
-0.64
  20
4.26
  30
0
  0
VERTEX
  8
0
  10
-0.58
  20
4.78
  30
0
  0
VERTEX
  8
0
  10
-0.48
  20
5.22
  30
0
  0
VERTEX
  8
0
  10
-0.3
  20
5.68
  30
0
  0
VERTEX
  8
0
  10
-0.18
  20
5.98
  30
0
  0
VERTEX
  8
0
  10
-0.3
  20
5.96
  30
0
  0
VERTEX
  8
0
  10
-0.68
  20
5.76
  30
0
  0
VERTEX
  8
0
  10
-1.32
  20
5.24
  30
0
  0
VERTEX
  8
0
  10
-1.76
  20
4.68
  30
0
  0
VERTEX
  8
0
  10
-2.26
  20
3.56
  30
0
  0
VERTEX
  8
0
  10
-2.38
  20
2.8
  30
0
  0
VERTEX
  8
0
  10
-2.34
  20
1.98
  30
0
  0
VERTEX
  8
0
  10
-2.26
  20
1.64
  30
0
  0
VERTEX
  8
0
  10
-2.14
  20
1.1
  30
0
  0
VERTEX
  8
0
  10
-1.96
  20
0.48
  30
0
  0
VERTEX
  8
0
  10
-1.96
  20
0.1
  30
0
  0
VERTEX
  8
0
  10
-1.96
  20
-0.08
  30
0
  0
VERTEX
  8
0
  10
-2
  20
-0.26
  30
0
  0
VERTEX
  8
0
  10
-2.06
  20
-0.46
  30
0
  0
VERTEX
  8
0
  10
-2.1
  20
-0.62
  30
0
  0
VERTEX
  8
0
  10
-2.18
  20
-0.9
  30
0
  0
VERTEX
  8
0
  10
-2.26
  20
-1.04
  30
0
  0
VERTEX
  8
0
  10
-2.36
  20
-1.12
  30
0
  0
VERTEX
  8
0
  10
-2.46
  20
-1.18
  30
0
  0
VERTEX
  8
0
  10
-2.42
  20
-0.84
  30
0
  0
VERTEX
  8
0
  10
-2.4
  20
-0.7
  30
0
  0
VERTEX
  8
0
  10
-2.38
  20
-0.52
  30
0
  0
VERTEX
  8
0
  10
-2.38
  20
-0.34
  30
0
  0
VERTEX
  8
0
  10
-2.38
  20
-0.24
  30
0
  0
VERTEX
  8
0
  10
-2.39
  20
-0.14
  30
0
  0
VERTEX
  8
0
  10
-2.4
  20
-0.04
  30
0
  0
VERTEX
  8
0
  10
-2.42
  20
0.1
  30
0
  0
VERTEX
  8
0
  10
-2.44
  20
0.28
  30
0
  0
VERTEX
  8
0
  10
-2.46
  20
0.36
  30
0
  0
VERTEX
  8
0
  10
-2.54
  20
0.62
  30
0
  0
VERTEX
  8
0
  10
-2.62
  20
0.78
  30
0
  0
VERTEX
  8
0
  10
-2.84
  20
1.14
  30
0
  0
VERTEX
  8
0
  10
-2.9
  20
1.24
  30
0
  0
VERTEX
  8
0
  10
-3.04
  20
1.38
  30
0
  0
VERTEX
  8
0
  10
-3.3
  20
1.64
  30
0
  0
VERTEX
  8
0
  10
-3.64
  20
1.86
  30
0
  0
VERTEX
  8
0
  10
-3.74
  20
1.9
  30
0
  0
VERTEX
  8
0
  10
-3.74
  20
1.76
  30
0
  0
VERTEX
  8
0
  10
-3.7
  20
1.54
  30
0
  0
VERTEX
  8
0
  10
-3.68
  20
1.34
  30
0
  0
VERTEX
  8
0
  10
-3.64
  20
0.74
  30
0
  0
VERTEX
  8
0
  10
-3.66
  20
0.38
  30
0
  0
VERTEX
  8
0
  10
-3.7
  20
0.16
  30
0
  0
VERTEX
  8
0
  10
-3.72
  20
0.02
  30
0
  0
VERTEX
  8
0
  10
-3.76
  20
-0.16
  30
0
  0
VERTEX
  8
0
  10
-3.82
  20
-0.34
  30
0
  0
VERTEX
  8
0
  10
-3.9
  20
-0.48
  30
0
  0
VERTEX
  8
0
  10
-3.98
  20
-0.58
  30
0
  0
VERTEX
  8
0
  10
-4.04
  20
-0.64
  30
0
  0
VERTEX
  8
0
  10
-4.12
  20
-0.74
  30
0
  0
VERTEX
  8
0
  10
-4.22
  20
-0.86
  30
0
  0
VERTEX
  8
0
  10
-4.32
  20
-1.02
  30
0
  0
VERTEX
  8
0
  10
-4.38
  20
-1.1
  30
0
  0
VERTEX
  8
0
  10
-4.44
  20
-1.2
  30
0
  0
VERTEX
  8
0
  10
-4.7
  20
-1.74
  30
0
  0
VERTEX
  8
0
  10
-4.98
  20
-2.8
  30
0
  0
VERTEX
  8
0
  10
-4.96
  20
-3.26
  30
0
  0
VERTEX
  8
0
  10
-4.66
  20
-4.12
  30
0
  0
VERTEX
  8
0
  10
-4.4
  20
-4.5
  30
0
  0
VERTEX
  8
0
  10
-4.18
  20
-4.8
  30
0
  0
VERTEX
  8
0
  10
-3.94
  20
-4.96
  30
0
  0
VERTEX
  8
0
  10
-3.76
  20
-5.1
  30
0
  0
VERTEX
  8
0
  10
-3.4
  20
-5.3
  30
0
  0
VERTEX
  8
0
  10
-2.94
  20
-5.5
  30
0
  0
VERTEX
  8
0
  10
-2.36
  20
-5.7
  30
0
  0
VERTEX
  8
0
  10
-1.76
  20
-5.88
  30
0
  0
VERTEX
  8
0
  10
-0.96
  20
-6
  30
0
  0
VERTEX
  8
0
  10
-0.4
  20
-6.04
  30
0
  0
VERTEX
  8
0
  10
0
  20
-6.05
  30
0
  0
VERTEX
  8
0
  10
0.32
  20
-6
  30
0
  0
VERTEX
  8
0
  10
0.62
  20
-5.92
  30
0
  0
VERTEX
  8
0
  10
1.06
  20
-5.8
  30
0
  0
VERTEX
  8
0
  10
1.4
  20
-5.68
  30
0
  0
VERTEX
  8
0
  10
1.9
  20
-5.46
  30
0
  0
VERTEX
  8
0
  10
2.72
  20
-5.02
  30
0
  0
VERTEX
  8
0
  10
3.32
  20
-4.48
  30
0
  0
VERTEX
  8
0
  10
3.7
  20
-3.96
  30
0
  0
VERTEX
  8
0
  10
3.92
  20
-3.36
  30
0
  0
VERTEX
  8
0
  10
4.02
  20
-2.9
  30
0
  0
VERTEX
  8
0
  10
4.02
  20
-2.78
  30
0
  0
VERTEX
  8
0
  10
4
  20
-2.46
  30
0
  0
VERTEX
  8
0
  10
3.94
  20
-1.96
  30
0
  0
VERTEX
  8
0
  10
3.7
  20
-1.22
  30
0
  0
VERTEX
  8
0
  10
3.4
  20
-0.56
  30
0
  0
VERTEX
  8
0
  10
3.18
  20
-0.04
  30
0
  0
SEQEND
  0
ENDBLK
  0
BLOCK
  8
0
  2
PIPEBREAK
  70
64
  10
0
  20
0
  30
0
  0
POLYLINE
  8
0
  62
0
  66
1
  10
0
  20
0
  70
1
 40
0
 41
0
 38
0
  0
VERTEX
  8
0
  10
0.5
  20
1.5
  30
0
  0
VERTEX
  8
0
  10
3.3
  20
1.5
  30
0
  0
VERTEX
  8
0
  10
3.38
  20
1.4
  30
0
  0
VERTEX
  8
0
  10
3.46
  20
1.3
  30
0
  0
VERTEX
  8
0
  10
3.5
  20
1.2
  30
0
  0
VERTEX
  8
0
  10
3.5
  20
-1.2
  30
0
  0
VERTEX
  8
0
  10
3.46
  20
-1.3
  30
0
  0
VERTEX
  8
0
  10
3.38
  20
-1.4
  30
0
  0
VERTEX
  8
0
  10
3.3
  20
-1.5
  30
0
  0
VERTEX
  8
0
  10
0.5
  20
-1.5
  30
0
  0
SEQEND
  0
POLYLINE
  8
0
  62
0
  66
1
  10
0
  20
0
  70
1
 40
0
 41
0
 38
0
  0
VERTEX
  8
0
  10
-0.5
  20
1.5
  30
0
  0
VERTEX
  8
0
  10
-3.3
  20
1.5
  30
0
  0
VERTEX
  8
0
  10
-3.38
  20
1.4
  30
0
  0
VERTEX
  8
0
  10
-3.46
  20
1.3
  30
0
  0
VERTEX
  8
0
  10
-3.5
  20
1.2
  30
0
  0
VERTEX
  8
0
  10
-3.5
  20
-1.2
  30
0
  0
VERTEX
  8
0
  10
-3.46
  20
-1.3
  30
0
  0
VERTEX
  8
0
  10
-3.38
  20
-1.4
  30
0
  0
VERTEX
  8
0
  10
-3.3
  20
-1.5
  30
0
  0
VERTEX
  8
0
  10
-0.5
  20
-1.5
  30
0
  0
SEQEND
  0
POLYLINE
  8
0
  62
0
  66
1
  10
0
  20
0
  70
1
 40
0
 41
0
 38
0
  0
VERTEX
  8
0
  10
-0.2
  20
2
  30
0
  0
VERTEX
  8
0
  10
0.2
  20
2
  30
0
  0
VERTEX
  8
0
  10
0.2
  20
4
  30
0
  0
VERTEX
  8
0
  10
-0.2
  20
4
  30
0
  0
SEQEND
  0
POLYLINE
  8
0
  62
0
  66
1
  10
0
  20
0
  70
1
 40
0
 41
0
 38
0
  0
VERTEX
  8
0
  10
0.8
  20
2
  30
0
  0
VERTEX
  8
0
  10
1.2
  20
2
  30
0
  0
VERTEX
  8
0
  10
2.7
  20
3.8
  30
0
  0
VERTEX
  8
0
  10
2.3
  20
3.8
  30
0
  0
SEQEND
  0
POLYLINE
  8
0
  62
0
  66
1
  10
0
  20
0
  70
1
 40
0
 41
0
 38
0
  0
VERTEX
  8
0
  10
-1.2
  20
2
  30
0
  0
VERTEX
  8
0
  10
-0.8
  20
2
  30
0
  0
VERTEX
  8
0
  10
-2.3
  20
3.8
  30
0
  0
VERTEX
  8
0
  10
-2.7
  20
3.8
  30
0
  0
SEQEND
  0
POLYLINE
  8
0
  62
0
  66
1
  10
0
  20
0
  70
1
 40
0
 41
0
 38
0
  0
VERTEX
  8
0
  10
-0.2
  20
-2
  30
0
  0
VERTEX
  8
0
  10
0.2
  20
-2
  30
0
  0
VERTEX
  8
0
  10
0.2
  20
-4
  30
0
  0
VERTEX
  8
0
  10
-0.2
  20
-4
  30
0
  0
SEQEND
  0
POLYLINE
  8
0
  62
0
  66
1
  10
0
  20
0
  70
1
 40
0
 41
0
 38
0
  0
VERTEX
  8
0
  10
0.8
  20
-2
  30
0
  0
VERTEX
  8
0
  10
1.2
  20
-2
  30
0
  0
VERTEX
  8
0
  10
2.7
  20
-3.8
  30
0
  0
VERTEX
  8
0
  10
2.3
  20
-3.8
  30
0
  0
SEQEND
  0
POLYLINE
  8
0
  62
0
  66
1
  10
0
  20
0
  70
1
 40
0
 41
0
 38
0
  0
VERTEX
  8
0
  10
-1.2
  20
-2
  30
0
  0
VERTEX
  8
0
  10
-0.8
  20
-2
  30
0
  0
VERTEX
  8
0
  10
-2.3
  20
-3.8
  30
0
  0
VERTEX
  8
0
  10
-2.7
  20
-3.8
  30
0
  0
SEQEND
  0
ENDBLK
  0
BLOCK
  8
0
  2
ISOLATEBREAK
  70
64
  10
0
  20
0
  30
0
  0
POLYLINE
  8
0
  62
0
  66
1
  10
0
  20
0
  70
1
 40
0
 41
0
 38
0
  0
VERTEX
  8
0
  10
2.12132034355964
  20
2.12132034355964
  30
0
  0
VERTEX
  8
0
  10
2.28121789680009
  20
1.94834414499055
  30
0
  0
VERTEX
  8
0
  10
2.42705098312484
  20
1.76335575687742
  30
0
  0
VERTEX
  8
0
  10
2.55792049306228
  20
1.56749569414785
  30
0
  0
VERTEX
  8
0
  10
2.6730195725651
  20
1.36197149921864
  30
0
  0
VERTEX
  8
0
  10
2.77163859753386
  20
1.14805029709527
  30
0
  0
VERTEX
  8
0
  10
2.85316954888546
  20
0.927050983124842
  30
0
  0
VERTEX
  8
0
  10
2.91710976119303
  20
0.700336091567716
  30
0
  0
VERTEX
  8
0
  10
2.96306502178541
  20
0.469303395120693
  30
0
  0
VERTEX
  8
0
  10
2.99075200119938
  20
0.235377287183535
  30
0
  0
VERTEX
  8
0
  10
3
  20
1.83690953073357E-16
  30
0
  0
VERTEX
  8
0
  10
2.99075200119938
  20
-0.235377287183535
  30
0
  0
VERTEX
  8
0
  10
2.96306502178541
  20
-0.469303395120692
  30
0
  0
VERTEX
  8
0
  10
2.91710976119303
  20
-0.700336091567716
  30
0
  0
VERTEX
  8
0
  10
2.85316954888546
  20
-0.927050983124842
  30
0
  0
VERTEX
  8
0
  10
2.77163859753386
  20
-1.14805029709527
  30
0
  0
VERTEX
  8
0
  10
2.6730195725651
  20
-1.36197149921864
  30
0
  0
VERTEX
  8
0
  10
2.55792049306228
  20
-1.56749569414785
  30
0
  0
VERTEX
  8
0
  10
2.42705098312484
  20
-1.76335575687742
  30
0
  0
VERTEX
  8
0
  10
2.28121789680009
  20
-1.94834414499055
  30
0
  0
VERTEX
  8
0
  10
0
  20
0
  30
0
  0
SEQEND
  0
POLYLINE
  8
0
  62
0
  66
1
  10
0
  20
0
  70
1
 40
0
 41
0
 38
0
  0
VERTEX
  8
0
  10
-2.12132034355964
  20
2.12132034355964
  30
0
  0
VERTEX
  8
0
  10
-2.28121789680009
  20
1.94834414499055
  30
0
  0
VERTEX
  8
0
  10
-2.42705098312484
  20
1.76335575687742
  30
0
  0
VERTEX
  8
0
  10
-2.55792049306228
  20
1.56749569414785
  30
0
  0
VERTEX
  8
0
  10
-2.6730195725651
  20
1.36197149921864
  30
0
  0
VERTEX
  8
0
  10
-2.77163859753386
  20
1.14805029709527
  30
0
  0
VERTEX
  8
0
  10
-2.85316954888546
  20
0.927050983124842
  30
0
  0
VERTEX
  8
0
  10
-2.91710976119303
  20
0.700336091567716
  30
0
  0
VERTEX
  8
0
  10
-2.96306502178541
  20
0.469303395120693
  30
0
  0
VERTEX
  8
0
  10
-2.99075200119938
  20
0.235377287183535
  30
0
  0
VERTEX
  8
0
  10
-3
  20
1.83690953073357E-16
  30
0
  0
VERTEX
  8
0
  10
-2.99075200119938
  20
-0.235377287183535
  30
0
  0
VERTEX
  8
0
  10
-2.96306502178541
  20
-0.469303395120692
  30
0
  0
VERTEX
  8
0
  10
-2.91710976119303
  20
-0.700336091567716
  30
0
  0
VERTEX
  8
0
  10
-2.85316954888546
  20
-0.927050983124842
  30
0
  0
VERTEX
  8
0
  10
-2.77163859753386
  20
-1.14805029709527
  30
0
  0
VERTEX
  8
0
  10
-2.6730195725651
  20
-1.36197149921864
  30
0
  0
VERTEX
  8
0
  10
-2.55792049306228
  20
-1.56749569414785
  30
0
  0
VERTEX
  8
0
  10
-2.42705098312484
  20
-1.76335575687742
  30
0
  0
VERTEX
  8
0
  10
-2.28121789680009
  20
-1.94834414499055
  30
0
  0
VERTEX
  8
0
  10
0
  20
0
  30
0
  0
SEQEND
  0
CIRCLE
  8
0
  62
0
  10
0
  20
0
  40
3
  0
ENDBLK
  0
BLOCK
  8
0
  2
FILLED_LIGHTNINGBOLT
  70
64
  10
0
  20
0
  30
0
  0
POLYLINE
  8
0
  62
0
  66
1
  10
0
  20
0
  70
1
 40
0
 41
0
 38
0
  0
VERTEX
  8
0
  10
0.8
  20
1.5
  30
0
  0
VERTEX
  8
0
  10
-0.5
  20
-0.6
  30
0
  0
VERTEX
  8
0
  10
2
  20
-0.6
  30
0
  0
VERTEX
  8
0
  10
-0.8
  20
-3.5
  30
0
  0
VERTEX
  8
0
  10
0
  20
-1.4
  30
0
  0
VERTEX
  8
0
  10
-2
  20
-1.4
  30
0
  0
SEQEND
  0
ENDBLK
  0
BLOCK
  8
0
  2
CONTROL_STRUCTURE_START
  70
64
  10
0
  20
0
  30
0
  0
POLYLINE
  8
0
  62
0
  66
1
  10
0
  20
0
  70
1
 40
0
 41
0
 38
0
  0
VERTEX
  8
0
  10
-0.75
  20
3
  30
0
  0
VERTEX
  8
0
  10
-0.75
  20
1.5
  30
0
  0
VERTEX
  8
0
  10
0.75
  20
1.5
  30
0
  0
VERTEX
  8
0
  10
0.75
  20
3
  30
0
  0
SEQEND
  0
POLYLINE
  8
0
  62
0
  66
1
  10
0
  20
0
  70
1
 40
0
 41
0
 38
0
  0
VERTEX
  8
0
  10
-0.75
  20
-1.5
  30
0
  0
VERTEX
  8
0
  10
-0.75
  20
-3
  30
0
  0
VERTEX
  8
0
  10
0.75
  20
-3
  30
0
  0
VERTEX
  8
0
  10
0.75
  20
-1.5
  30
0
  0
SEQEND
  0
POLYLINE
  8
0
  62
0
  66
1
  10
0
  20
0
 40
0
 41
0
 38
0
  0
VERTEX
  8
0
  10
0
  20
-2.25
  30
0
  0
VERTEX
  8
0
  10
0
  20
2.25
  30
0
  0
SEQEND
  0
ENDBLK
  0
BLOCK
  8
0
  2
CONTROL_STRUCTURE_STOP
  70
64
  10
0
  20
0
  30
0
  0
POLYLINE
  8
0
  62
0
  66
1
  10
0
  20
0
  70
1
 40
0
 41
0
 38
0
  0
VERTEX
  8
0
  10
-0.75
  20
3
  30
0
  0
VERTEX
  8
0
  10
-0.75
  20
1.5
  30
0
  0
VERTEX
  8
0
  10
0.75
  20
1.5
  30
0
  0
VERTEX
  8
0
  10
0.75
  20
3
  30
0
  0
SEQEND
  0
POLYLINE
  8
0
  62
0
  66
1
  10
0
  20
0
  70
1
 40
0
 41
0
 38
0
  0
VERTEX
  8
0
  10
-0.75
  20
-1.5
  30
0
  0
VERTEX
  8
0
  10
-0.75
  20
-3
  30
0
  0
VERTEX
  8
0
  10
0.75
  20
-3
  30
0
  0
VERTEX
  8
0
  10
0.75
  20
-1.5
  30
0
  0
SEQEND
  0
POLYLINE
  8
0
  62
0
  66
1
  10
0
  20
0
 40
0
 41
0
 38
0
  0
VERTEX
  8
0
  10
0
  20
-2.25
  30
0
  0
VERTEX
  8
0
  10
0
  20
2.25
  30
0
  0
SEQEND
  0
ENDBLK
  0
BLOCK
  8
0
  2
CONTROL_STRUCTURE_FLAPGATE
  70
64
  10
0
  20
0
  30
0
  0
POLYLINE
  8
0
  62
0
  66
1
  10
0
  20
0
  70
1
 40
0
 41
0
 38
0
  0
VERTEX
  8
0
  10
0
  20
0
  30
0
  0
VERTEX
  8
0
  10
-3
  20
1.5
  30
0
  0
VERTEX
  8
0
  10
-3
  20
-1.5
  30
0
  0
SEQEND
  0
POLYLINE
  8
0
  62
0
  66
1
  10
0
  20
0
 40
0
 41
0
 38
0
  0
VERTEX
  8
0
  10
0
  20
-3
  30
0
  0
VERTEX
  8
0
  10
0
  20
3
  30
0
  0
SEQEND
  0
ENDBLK
  0
BLOCK
  8
0
  2
CONTROL_STRUCTURE_CENTER
  70
64
  10
0
  20
0
  30
0
  0
POLYLINE
  8
0
  62
0
  66
1
  10
0
  20
0
  70
1
 40
0
 41
0
 38
0
  0
VERTEX
  8
0
  10
-0.75
  20
3
  30
0
  0
VERTEX
  8
0
  10
-0.75
  20
1.5
  30
0
  0
VERTEX
  8
0
  10
0.75
  20
1.5
  30
0
  0
VERTEX
  8
0
  10
0.75
  20
3
  30
0
  0
SEQEND
  0
POLYLINE
  8
0
  62
0
  66
1
  10
0
  20
0
  70
1
 40
0
 41
0
 38
0
  0
VERTEX
  8
0
  10
-0.75
  20
-1.5
  30
0
  0
VERTEX
  8
0
  10
-0.75
  20
-3
  30
0
  0
VERTEX
  8
0
  10
0.75
  20
-3
  30
0
  0
VERTEX
  8
0
  10
0.75
  20
-1.5
  30
0
  0
SEQEND
  0
POLYLINE
  8
0
  62
0
  66
1
  10
0
  20
0
 40
0
 41
0
 38
0
  0
VERTEX
  8
0
  10
0
  20
-2.25
  30
0
  0
VERTEX
  8
0
  10
0
  20
2.25
  30
0
  0
SEQEND
  0
ENDBLK
  0
BLOCK
  8
0
  2
CONTROL_STRUCTURE_STOPFLAPGATE
  70
64
  10
0
  20
0
  30
0
  0
POLYLINE
  8
0
  62
0
  66
1
  10
0
  20
0
  70
1
 40
0
 41
0
 38
0
  0
VERTEX
  8
0
  10
-0.75
  20
3
  30
0
  0
VERTEX
  8
0
  10
-0.75
  20
1.5
  30
0
  0
VERTEX
  8
0
  10
0.75
  20
1.5
  30
0
  0
VERTEX
  8
0
  10
0.75
  20
3
  30
0
  0
SEQEND
  0
POLYLINE
  8
0
  62
0
  66
1
  10
0
  20
0
  70
1
 40
0
 41
0
 38
0
  0
VERTEX
  8
0
  10
-0.75
  20
-1.5
  30
0
  0
VERTEX
  8
0
  10
-0.75
  20
-3
  30
0
  0
VERTEX
  8
0
  10
0.75
  20
-3
  30
0
  0
VERTEX
  8
0
  10
0.75
  20
-1.5
  30
0
  0
SEQEND
  0
POLYLINE
  8
0
  62
0
  66
1
  10
0
  20
0
 40
0
 41
0
 38
0
  0
VERTEX
  8
0
  10
0
  20
-2.25
  30
0
  0
VERTEX
  8
0
  10
0
  20
2.25
  30
0
  0
SEQEND
  0
POLYLINE
  8
0
  62
0
  66
1
  10
0
  20
0
  70
1
 40
0
 41
0
 38
0
  0
VERTEX
  8
0
  10
0
  20
0
  30
0
  0
VERTEX
  8
0
  10
-3
  20
1.5
  30
0
  0
VERTEX
  8
0
  10
-3
  20
-1.5
  30
0
  0
SEQEND
  0
ENDBLK
  0
ENDSEC
  0
SECTION
  2
ENTITIES
  0
INSERT
  8
R
  2
RESERVOIR
  10
343984.47424979
  20
354044.620464094
  30
0
  50
0
  41
0.31750000000127
  42
0.31750000000127
  43
1
  62
0
  0
TEXT
  8
R
  62
0
  10
343986.91264979
  20
354047.058864094
  40
1.27000000000508
  50
0
  72
0
  73
1
  11
343986.91264979
  21
354047.058864094
  1
R-1
  0
INSERT
  8
R
  2
RESERVOIR
  10
344433.293
  20
345678.847
  30
0
  50
0
  41
0.31750000000127
  42
0.31750000000127
  43
1
  62
0
  0
TEXT
  8
R
  62
0
  10
344435.7314
  20
345681.2854
  40
1.27000000000508
  50
0
  72
0
  73
1
  11
344435.7314
  21
345681.2854
  1
R-2
  0
INSERT
  8
PMP
  2
PUMP
  10
343997.679745305
  20
354056.779979766
  30
0
  50
344.856278172506
  41
0.31750000000127
  42
0.31750000000127
  43
1
  62
0
  0
TEXT
  8
PMP
  62
0
  10
343997.730543266
  20
354065.384870333
  40
1.27000000000508
  50
0
  72
0
  73
1
  11
343997.730543266
  21
354065.384870333
  1
PMP-1
  0
TEXT
  8
PMP
  62
0
  10
343995.292143266
  20
354060.946470333
  40
1.27000000000508
  50
0
  72
0
  73
1
  11
343995.292143266
  21
354060.946470333
  1
NPSH13,64 m
  0
TEXT
  8
PMP
  62
0
  10
343985.292143266
  20
354063.946470333
  40
1.27000000000508
  50
0
  72
0
  73
1
  11
343985.292143266
  21
354063.946470333
  1
Pmax_T12,473 bars
  0
TEXT
  8
PMP
  62
0
  10
344005.292143266
  20
354061.946470333
  40
1.27000000000508
  50
0
  72
0
  73
1
  11
344005.292143266
  21
354061.946470333
  1
Psus_T0,369 bars
  0
TEXT
  8
PMP
  62
0
  10
344006.128923436
  20
354058.469457939
  40
1.27000000000508
  50
0
  72
0
  73
1
  11
344006.128923436
  21
354058.469457939
  1
Pdis11,397 bars
  0
INSERT
  8
PMP
  2
PUMP
  10
344004.609361763
  20
354039.52131236
  30
0
  50
54.403891941321
  41
0.31750000000127
  42
0.31750000000127
  43
1
  62
0
  0
TEXT
  8
PMP
  62
0
  10
344006.026120683
  20
354037.81035028
  40
1.27000000000508
  50
0
  72
0
  73
1
  11
344006.026120683
  21
354037.81035028
  1
PMP-2
  0
TEXT
  8
PMP
  62
0
  10
344003.587720683
  20
354033.37195028
  40
1.27000000000508
  50
0
  72
0
  73
1
  11
344003.587720683
  21
354033.37195028
  1
NPSH13,64 m
  0
TEXT
  8
PMP
  62
0
  10
343993.587720683
  20
354036.37195028
  40
1.27000000000508
  50
0
  72
0
  73
1
  11
343993.587720683
  21
354036.37195028
  1
Pmax_T12,473 bars
  0
TEXT
  8
PMP
  62
0
  10
344013.587720683
  20
354034.37195028
  40
1.27000000000508
  50
0
  72
0
  73
1
  11
344013.587720683
  21
354034.37195028
  1
Psus_T0,369 bars
  0
TEXT
  8
PMP
  62
0
  10
344014.529098374
  20
354030.267352759
  40
1.27000000000508
  50
0
  72
0
  73
1
  11
344014.529098374
  21
354030.267352759
  1
Pdis11,397 bars
  0
INSERT
  8
P0
  2
FILLED_CIRCLE
  10
344061.105
  20
354068.703
  30
0
  50
0
  41
0.31750000000127
  42
0.31750000000127
  43
1
  62
0
  0
TEXT
  8
P0
  62
0
  10
344063.5434
  20
354071.1414
  40
1.27000000000508
  50
0
  72
0
  73
1
  11
344063.5434
  21
354071.1414
  1
P03
  0
TEXT
  8
P0
  62
0
  10
344066.105
  20
354069.703
  40
1.27000000000508
  50
0
  72
0
  73
1
  11
344066.105
  21
354069.703
  1
Pmax TR11,721 bars
  0
TEXT
  8
P0
  62
0
  10
344066.105
  20
354066.703
  40
1.27000000000508
  50
0
  72
0
  73
1
  11
344066.105
  21
354066.703
  1
Pmin_TR7,051 bars
  0
INSERT
  8
P0
  2
FILLED_CIRCLE
  10
344084.699
  20
354076.836
  30
0
  50
0
  41
0.31750000000127
  42
0.31750000000127
  43
1
  62
0
  0
TEXT
  8
P0
  62
0
  10
344084.844283245
  20
354078.448877968
  40
1.27000000000508
  50
0
  72
0
  73
1
  11
344084.844283245
  21
354078.448877968
  1
P04
  0
TEXT
  8
P0
  62
0
  10
344087.405883245
  20
354077.010477968
  40
1.27000000000508
  50
0
  72
0
  73
1
  11
344087.405883245
  21
354077.010477968
  1
Pmax TR12,054 bars
  0
TEXT
  8
P0
  62
0
  10
344087.405883245
  20
354074.010477968
  40
1.27000000000508
  50
0
  72
0
  73
1
  11
344087.405883245
  21
354074.010477968
  1
Pmin_TR7,400 bars
  0
INSERT
  8
P0
  2
FILLED_CIRCLE
  10
344099.324
  20
354075.213
  30
0
  50
0
  41
0.31750000000127
  42
0.31750000000127
  43
1
  62
0
  0
TEXT
  8
P0
  62
0
  10
344105.890010159
  20
354076.458979288
  40
1.27000000000508
  50
0
  72
0
  73
1
  11
344105.890010159
  21
354076.458979288
  1
P06
  0
TEXT
  8
P0
  62
0
  10
344108.451610159
  20
354075.020579287
  40
1.27000000000508
  50
0
  72
0
  73
1
  11
344108.451610159
  21
354075.020579287
  1
Pmax TR12,251 bars
  0
TEXT
  8
P0
  62
0
  10
344108.451610159
  20
354072.020579287
  40
1.27000000000508
  50
0
  72
0
  73
1
  11
344108.451610159
  21
354072.020579287
  1
Pmin_TR7,604 bars
  0
INSERT
  8
P0
  2
FILLED_CIRCLE
  10
345620.567
  20
353144.849
  30
0
  50
0
  41
0.31750000000127
  42
0.31750000000127
  43
1
  62
0
  0
TEXT
  8
P0
  62
0
  10
345623.0054
  20
353147.2874
  40
1.27000000000508
  50
0
  72
0
  73
1
  11
345623.0054
  21
353147.2874
  1
P126
  0
TEXT
  8
P0
  62
0
  10
345625.567
  20
353145.849
  40
1.27000000000508
  50
0
  72
0
  73
1
  11
345625.567
  21
353145.849
  1
Pmax TR9,794 bars
  0
TEXT
  8
P0
  62
0
  10
345625.567
  20
353142.849
  40
1.27000000000508
  50
0
  72
0
  73
1
  11
345625.567
  21
353142.849
  1
Pmin_TR5,678 bars
  0
INSERT
  8
P0
  2
FILLED_CIRCLE
  10
345668.853
  20
353088.608
  30
0
  50
0
  41
0.31750000000127
  42
0.31750000000127
  43
1
  62
0
  0
TEXT
  8
P0
  62
0
  10
345671.2914
  20
353091.0464
  40
1.27000000000508
  50
0
  72
0
  73
1
  11
345671.2914
  21
353091.0464
  1
P131
  0
TEXT
  8
P0
  62
0
  10
345673.853
  20
353089.608
  40
1.27000000000508
  50
0
  72
0
  73
1
  11
345673.853
  21
353089.608
  1
Pmax TR9,521 bars
  0
TEXT
  8
P0
  62
0
  10
345673.853
  20
353086.608
  40
1.27000000000508
  50
0
  72
0
  73
1
  11
345673.853
  21
353086.608
  1
Pmin_TR5,423 bars
  0
INSERT
  8
P0
  2
FILLED_CIRCLE
  10
344268.104
  20
354056.48
  30
0
  50
0
  41
0.31750000000127
  42
0.31750000000127
  43
1
  62
0
  0
TEXT
  8
P0
  62
0
  10
344270.5424
  20
354058.9184
  40
1.27000000000508
  50
0
  72
0
  73
1
  11
344270.5424
  21
354058.9184
  1
P14
  0
TEXT
  8
P0
  62
0
  10
344273.104
  20
354057.48
  40
1.27000000000508
  50
0
  72
0
  73
1
  11
344273.104
  21
354057.48
  1
Pmax TR11,867 bars
  0
TEXT
  8
P0
  62
0
  10
344273.104
  20
354054.48
  40
1.27000000000508
  50
0
  72
0
  73
1
  11
344273.104
  21
354054.48
  1
Pmin_TR7,306 bars
  0
INSERT
  8
P0
  2
FILLED_CIRCLE
  10
346074.977
  20
352647.924
  30
0
  50
0
  41
0.31750000000127
  42
0.31750000000127
  43
1
  62
0
  0
TEXT
  8
P0
  62
0
  10
346077.4154
  20
352650.3624
  40
1.27000000000508
  50
0
  72
0
  73
1
  11
346077.4154
  21
352650.3624
  1
P166
  0
TEXT
  8
P0
  62
0
  10
346079.977
  20
352648.924
  40
1.27000000000508
  50
0
  72
0
  73
1
  11
346079.977
  21
352648.924
  1
Pmax TR8,691 bars
  0
TEXT
  8
P0
  62
0
  10
346079.977
  20
352645.924
  40
1.27000000000508
  50
0
  72
0
  73
1
  11
346079.977
  21
352645.924
  1
Pmin_TR4,737 bars
  0
INSERT
  8
P0
  2
FILLED_CIRCLE
  10
344309.81
  20
354107.001
  30
0
  50
0
  41
0.31750000000127
  42
0.31750000000127
  43
1
  62
0
  0
TEXT
  8
P0
  62
0
  10
344312.2484
  20
354109.4394
  40
1.27000000000508
  50
0
  72
0
  73
1
  11
344312.2484
  21
354109.4394
  1
P17
  0
TEXT
  8
P0
  62
0
  10
344314.81
  20
354108.001
  40
1.27000000000508
  50
0
  72
0
  73
1
  11
344314.81
  21
354108.001
  1
Pmax TR11,963 bars
  0
TEXT
  8
P0
  62
0
  10
344314.81
  20
354105.001
  40
1.27000000000508
  50
0
  72
0
  73
1
  11
344314.81
  21
354105.001
  1
Pmin_TR7,415 bars
  0
INSERT
  8
P0
  2
FILLED_CIRCLE
  10
346174.917
  20
352536.091
  30
0
  50
0
  41
0.31750000000127
  42
0.31750000000127
  43
1
  62
0
  0
TEXT
  8
P0
  62
0
  10
346177.3554
  20
352538.5294
  40
1.27000000000508
  50
0
  72
0
  73
1
  11
346177.3554
  21
352538.5294
  1
P174
  0
TEXT
  8
P0
  62
0
  10
346179.917
  20
352537.091
  40
1.27000000000508
  50
0
  72
0
  73
1
  11
346179.917
  21
352537.091
  1
Pmax TR8,909 bars
  0
TEXT
  8
P0
  62
0
  10
346179.917
  20
352534.091
  40
1.27000000000508
  50
0
  72
0
  73
1
  11
346179.917
  21
352534.091
  1
Pmin_TR4,991 bars
  0
INSERT
  8
P0
  2
FILLED_CIRCLE
  10
346273.888
  20
352423.384
  30
0
  50
0
  41
0.31750000000127
  42
0.31750000000127
  43
1
  62
0
  0
TEXT
  8
P0
  62
0
  10
346276.3264
  20
352425.8224
  40
1.27000000000508
  50
0
  72
0
  73
1
  11
346276.3264
  21
352425.8224
  1
P183
  0
TEXT
  8
P0
  62
0
  10
346278.888
  20
352424.384
  40
1.27000000000508
  50
0
  72
0
  73
1
  11
346278.888
  21
352424.384
  1
Pmax TR8,291 bars
  0
TEXT
  8
P0
  62
0
  10
346278.888
  20
352421.384
  40
1.27000000000508
  50
0
  72
0
  73
1
  11
346278.888
  21
352421.384
  1
Pmin_TR4,410 bars
  0
INSERT
  8
P0
  2
FILLED_CIRCLE
  10
346462.829
  20
352223.617
  30
0
  50
0
  41
0.31750000000127
  42
0.31750000000127
  43
1
  62
0
  0
TEXT
  8
P0
  62
0
  10
346465.2674
  20
352226.0554
  40
1.27000000000508
  50
0
  72
0
  73
1
  11
346465.2674
  21
352226.0554
  1
P198
  0
TEXT
  8
P0
  62
0
  10
346467.829
  20
352224.617
  40
1.27000000000508
  50
0
  72
0
  73
1
  11
346467.829
  21
352224.617
  1
Pmax TR8,128 bars
  0
TEXT
  8
P0
  62
0
  10
346467.829
  20
352221.617
  40
1.27000000000508
  50
0
  72
0
  73
1
  11
346467.829
  21
352221.617
  1
Pmin_TR4,316 bars
  0
INSERT
  8
P0
  2
FILLED_CIRCLE
  10
344357.556
  20
354164.84
  30
0
  50
0
  41
0.31750000000127
  42
0.31750000000127
  43
1
  62
0
  0
TEXT
  8
P0
  62
0
  10
344359.9944
  20
354167.2784
  40
1.27000000000508
  50
0
  72
0
  73
1
  11
344359.9944
  21
354167.2784
  1
P20
  0
TEXT
  8
P0
  62
0
  10
344362.556
  20
354165.84
  40
1.27000000000508
  50
0
  72
0
  73
1
  11
344362.556
  21
354165.84
  1
Pmax TR12,603 bars
  0
TEXT
  8
P0
  62
0
  10
344362.556
  20
354162.84
  40
1.27000000000508
  50
0
  72
0
  73
1
  11
344362.556
  21
354162.84
  1
Pmin_TR8,073 bars
  0
INSERT
  8
P0
  2
FILLED_CIRCLE
  10
346515.819
  20
352170.669
  30
0
  50
0
  41
0.31750000000127
  42
0.31750000000127
  43
1
  62
0
  0
TEXT
  8
P0
  62
0
  10
346518.2574
  20
352173.1074
  40
1.27000000000508
  50
0
  72
0
  73
1
  11
346518.2574
  21
352173.1074
  1
P203
  0
TEXT
  8
P0
  62
0
  10
346520.819
  20
352171.669
  40
1.27000000000508
  50
0
  72
0
  73
1
  11
346520.819
  21
352171.669
  1
Pmax TR8,364 bars
  0
TEXT
  8
P0
  62
0
  10
346520.819
  20
352168.669
  40
1.27000000000508
  50
0
  72
0
  73
1
  11
346520.819
  21
352168.669
  1
Pmin_TR4,571 bars
  0
INSERT
  8
P0
  2
FILLED_CIRCLE
  10
344389.386
  20
354203.399
  30
0
  50
0
  41
0.31750000000127
  42
0.31750000000127
  43
1
  62
0
  0
TEXT
  8
P0
  62
0
  10
344391.8244
  20
354205.8374
  40
1.27000000000508
  50
0
  72
0
  73
1
  11
344391.8244
  21
354205.8374
  1
P22
  0
TEXT
  8
P0
  62
0
  10
344394.386
  20
354204.399
  40
1.27000000000508
  50
0
  72
0
  73
1
  11
344394.386
  21
354204.399
  1
Pmax TR12,629 bars
  0
TEXT
  8
P0
  62
0
  10
344394.386
  20
354201.399
  40
1.27000000000508
  50
0
  72
0
  73
1
  11
344394.386
  21
354201.399
  1
Pmin_TR8,111 bars
  0
INSERT
  8
P0
  2
FILLED_CIRCLE
  10
346962.847
  20
351991.394
  30
0
  50
0
  41
0.31750000000127
  42
0.31750000000127
  43
1
  62
0
  0
TEXT
  8
P0
  62
0
  10
346965.2854
  20
351993.8324
  40
1.27000000000508
  50
0
  72
0
  73
1
  11
346965.2854
  21
351993.8324
  1
P233
  0
TEXT
  8
P0
  62
0
  10
346967.847
  20
351992.394
  40
1.27000000000508
  50
0
  72
0
  73
1
  11
346967.847
  21
351992.394
  1
Pmax TR7,177 bars
  0
TEXT
  8
P0
  62
0
  10
346967.847
  20
351989.394
  40
1.27000000000508
  50
0
  72
0
  73
1
  11
346967.847
  21
351989.394
  1
Pmin_TR3,482 bars
  0
INSERT
  8
P0
  2
FILLED_CIRCLE
  10
344430.804
  20
354228.467
  30
0
  50
0
  41
0.31750000000127
  42
0.31750000000127
  43
1
  62
0
  0
TEXT
  8
P0
  62
0
  10
344433.2424
  20
354230.9054
  40
1.27000000000508
  50
0
  72
0
  73
1
  11
344433.2424
  21
354230.9054
  1
P25
  0
TEXT
  8
P0
  62
0
  10
344435.804
  20
354229.467
  40
1.27000000000508
  50
0
  72
0
  73
1
  11
344435.804
  21
354229.467
  1
Pmax TR11,947 bars
  0
TEXT
  8
P0
  62
0
  10
344435.804
  20
354226.467
  40
1.27000000000508
  50
0
  72
0
  73
1
  11
344435.804
  21
354226.467
  1
Pmin_TR7,440 bars
  0
INSERT
  8
P0
  2
FILLED_CIRCLE
  10
344451.885
  20
354239.232
  30
0
  50
0
  41
0.31750000000127
  42
0.31750000000127
  43
1
  62
0
  0
TEXT
  8
P0
  62
0
  10
344454.3234
  20
354241.6704
  40
1.27000000000508
  50
0
  72
0
  73
1
  11
344454.3234
  21
354241.6704
  1
P27
  0
TEXT
  8
P0
  62
0
  10
344456.885
  20
354240.232
  40
1.27000000000508
  50
0
  72
0
  73
1
  11
344456.885
  21
354240.232
  1
Pmax TR11,705 bars
  0
TEXT
  8
P0
  62
0
  10
344456.885
  20
354237.232
  40
1.27000000000508
  50
0
  72
0
  73
1
  11
344456.885
  21
354237.232
  1
Pmin_TR7,204 bars
  0
INSERT
  8
P0
  2
FILLED_CIRCLE
  10
346720.394
  20
351404.722
  30
0
  50
0
  41
0.31750000000127
  42
0.31750000000127
  43
1
  62
0
  0
TEXT
  8
P0
  62
0
  10
346722.8324
  20
351407.1604
  40
1.27000000000508
  50
0
  72
0
  73
1
  11
346722.8324
  21
351407.1604
  1
P274
  0
TEXT
  8
P0
  62
0
  10
346725.394
  20
351405.722
  40
1.27000000000508
  50
0
  72
0
  73
1
  11
346725.394
  21
351405.722
  1
Pmax TR6,296 bars
  0
TEXT
  8
P0
  62
0
  10
346725.394
  20
351402.722
  40
1.27000000000508
  50
0
  72
0
  73
1
  11
346725.394
  21
351402.722
  1
Pmin_TR2,659 bars
  0
INSERT
  8
P0
  2
FILLED_CIRCLE
  10
346646.077
  20
351274.831
  30
0
  50
0
  41
0.31750000000127
  42
0.31750000000127
  43
1
  62
0
  0
TEXT
  8
P0
  62
0
  10
346648.5154
  20
351277.2694
  40
1.27000000000508
  50
0
  72
0
  73
1
  11
346648.5154
  21
351277.2694
  1
P284
  0
TEXT
  8
P0
  62
0
  10
346651.077
  20
351275.831
  40
1.27000000000508
  50
0
  72
0
  73
1
  11
346651.077
  21
351275.831
  1
Pmax TR5,975 bars
  0
TEXT
  8
P0
  62
0
  10
346651.077
  20
351272.831
  40
1.27000000000508
  50
0
  72
0
  73
1
  11
346651.077
  21
351272.831
  1
Pmin_TR2,359 bars
  0
INSERT
  8
P0
  2
FILLED_CIRCLE
  10
344522.997
  20
354265.373
  30
0
  50
0
  41
0.31750000000127
  42
0.31750000000127
  43
1
  62
0
  0
TEXT
  8
P0
  62
0
  10
344525.4354
  20
354267.8114
  40
1.27000000000508
  50
0
  72
0
  73
1
  11
344525.4354
  21
354267.8114
  1
P31
  0
TEXT
  8
P0
  62
0
  10
344527.997
  20
354266.373
  40
1.27000000000508
  50
0
  72
0
  73
1
  11
344527.997
  21
354266.373
  1
Pmax TR11,508 bars
  0
TEXT
  8
P0
  62
0
  10
344527.997
  20
354263.373
  40
1.27000000000508
  50
0
  72
0
  73
1
  11
344527.997
  21
354263.373
  1
Pmin_TR7,024 bars
  0
INSERT
  8
P0
  2
FILLED_CIRCLE
  10
346264.603
  20
350814.401
  30
0
  50
0
  41
0.31750000000127
  42
0.31750000000127
  43
1
  62
0
  0
TEXT
  8
P0
  62
0
  10
346267.0414
  20
350816.8394
  40
1.27000000000508
  50
0
  72
0
  73
1
  11
346267.0414
  21
350816.8394
  1
P320
  0
TEXT
  8
P0
  62
0
  10
346269.603
  20
350815.401
  40
1.27000000000508
  50
0
  72
0
  73
1
  11
346269.603
  21
350815.401
  1
Pmax TR5,511 bars
  0
TEXT
  8
P0
  62
0
  10
346269.603
  20
350812.401
  40
1.27000000000508
  50
0
  72
0
  73
1
  11
346269.603
  21
350812.401
  1
Pmin_TR2,003 bars
  0
INSERT
  8
P0
  2
FILLED_CIRCLE
  10
344555.551
  20
354277.34
  30
0
  50
0
  41
0.31750000000127
  42
0.31750000000127
  43
1
  62
0
  0
TEXT
  8
P0
  62
0
  10
344557.9894
  20
354279.7784
  40
1.27000000000508
  50
0
  72
0
  73
1
  11
344557.9894
  21
354279.7784
  1
P33
  0
TEXT
  8
P0
  62
0
  10
344560.551
  20
354278.34
  40
1.27000000000508
  50
0
  72
0
  73
1
  11
344560.551
  21
354278.34
  1
Pmax TR11,528 bars
  0
TEXT
  8
P0
  62
0
  10
344560.551
  20
354275.34
  40
1.27000000000508
  50
0
  72
0
  73
1
  11
344560.551
  21
354275.34
  1
Pmin_TR7,052 bars
  0
INSERT
  8
P0
  2
FILLED_CIRCLE
  10
345908.034
  20
350179.982
  30
0
  50
0
  41
0.31750000000127
  42
0.31750000000127
  43
1
  62
0
  0
TEXT
  8
P0
  62
0
  10
345910.4724
  20
350182.4204
  40
1.27000000000508
  50
0
  72
0
  73
1
  11
345910.4724
  21
350182.4204
  1
P366
  0
TEXT
  8
P0
  62
0
  10
345913.034
  20
350180.982
  40
1.27000000000508
  50
0
  72
0
  73
1
  11
345913.034
  21
350180.982
  1
Pmax TR4,382 bars
  0
TEXT
  8
P0
  62
0
  10
345913.034
  20
350177.982
  40
1.27000000000508
  50
0
  72
0
  73
1
  11
345913.034
  21
350177.982
  1
Pmin_TR1,049 bars
  0
INSERT
  8
P0
  2
FILLED_CIRCLE
  10
345237.57
  20
349295.013
  30
0
  50
0
  41
0.31750000000127
  42
0.31750000000127
  43
1
  62
0
  0
TEXT
  8
P0
  62
0
  10
345240.0084
  20
349297.4514
  40
1.27000000000508
  50
0
  72
0
  73
1
  11
345240.0084
  21
349297.4514
  1
P437
  0
TEXT
  8
P0
  62
0
  10
345242.57
  20
349296.013
  40
1.27000000000508
  50
0
  72
0
  73
1
  11
345242.57
  21
349296.013
  1
Pmax TR3,286 bars
  0
TEXT
  8
P0
  62
0
  10
345242.57
  20
349293.013
  40
1.27000000000508
  50
0
  72
0
  73
1
  11
345242.57
  21
349293.013
  1
Pmin_TR0,322 bars
  0
INSERT
  8
P0
  2
FILLED_CIRCLE
  10
345017.274
  20
349075.392
  30
0
  50
0
  41
0.31750000000127
  42
0.31750000000127
  43
1
  62
0
  0
TEXT
  8
P0
  62
0
  10
345019.7124
  20
349077.8304
  40
1.27000000000508
  50
0
  72
0
  73
1
  11
345019.7124
  21
349077.8304
  1
P456
  0
TEXT
  8
P0
  62
0
  10
345022.274
  20
349076.392
  40
1.27000000000508
  50
0
  72
0
  73
1
  11
345022.274
  21
349076.392
  1
Pmax TR2,996 bars
  0
TEXT
  8
P0
  62
0
  10
345022.274
  20
349073.392
  40
1.27000000000508
  50
0
  72
0
  73
1
  11
345022.274
  21
349073.392
  1
Pmin_TR0,155 bars
  0
INSERT
  8
P0
  2
FILLED_CIRCLE
  10
344874.5
  20
348913.363
  30
0
  50
0
  41
0.31750000000127
  42
0.31750000000127
  43
1
  62
0
  0
TEXT
  8
P0
  62
0
  10
344876.9384
  20
348915.8014
  40
1.27000000000508
  50
0
  72
0
  73
1
  11
344876.9384
  21
348915.8014
  1
P468
  0
TEXT
  8
P0
  62
0
  10
344879.5
  20
348914.363
  40
1.27000000000508
  50
0
  72
0
  73
1
  11
344879.5
  21
348914.363
  1
Pmax TR3,286 bars
  0
TEXT
  8
P0
  62
0
  10
344879.5
  20
348911.363
  40
1.27000000000508
  50
0
  72
0
  73
1
  11
344879.5
  21
348911.363
  1
Pmin_TR0,538 bars
  0
INSERT
  8
P0
  2
FILLED_CIRCLE
  10
344771.182
  20
348789.905
  30
0
  50
0
  41
0.31750000000127
  42
0.31750000000127
  43
1
  62
0
  0
TEXT
  8
P0
  62
0
  10
344773.6204
  20
348792.3434
  40
1.27000000000508
  50
0
  72
0
  73
1
  11
344773.6204
  21
348792.3434
  1
P478
  0
TEXT
  8
P0
  62
0
  10
344776.182
  20
348790.905
  40
1.27000000000508
  50
0
  72
0
  73
1
  11
344776.182
  21
348790.905
  1
Pmax TR3,079 bars
  0
TEXT
  8
P0
  62
0
  10
344776.182
  20
348787.905
  40
1.27000000000508
  50
0
  72
0
  73
1
  11
344776.182
  21
348787.905
  1
Pmin_TR0,402 bars
  0
INSERT
  8
P0
  2
FILLED_CIRCLE
  10
344569.812
  20
348404.629
  30
0
  50
0
  41
0.31750000000127
  42
0.31750000000127
  43
1
  62
0
  0
TEXT
  8
P0
  62
0
  10
344572.2504
  20
348407.0674
  40
1.27000000000508
  50
0
  72
0
  73
1
  11
344572.2504
  21
348407.0674
  1
P507
  0
TEXT
  8
P0
  62
0
  10
344574.812
  20
348405.629
  40
1.27000000000508
  50
0
  72
0
  73
1
  11
344574.812
  21
348405.629
  1
Pmax TR3,367 bars
  0
TEXT
  8
P0
  62
0
  10
344574.812
  20
348402.629
  40
1.27000000000508
  50
0
  72
0
  73
1
  11
344574.812
  21
348402.629
  1
Pmin_TR0,900 bars
  0
INSERT
  8
P0
  2
FILLED_CIRCLE
  10
344566.9
  20
348135.191
  30
0
  50
0
  41
0.31750000000127
  42
0.31750000000127
  43
1
  62
0
  0
TEXT
  8
P0
  62
0
  10
344569.3384
  20
348137.6294
  40
1.27000000000508
  50
0
  72
0
  73
1
  11
344569.3384
  21
348137.6294
  1
P525
  0
TEXT
  8
P0
  62
0
  10
344571.9
  20
348136.191
  40
1.27000000000508
  50
0
  72
0
  73
1
  11
344571.9
  21
348136.191
  1
Pmax TR3,758 bars
  0
TEXT
  8
P0
  62
0
  10
344571.9
  20
348133.191
  40
1.27000000000508
  50
0
  72
0
  73
1
  11
344571.9
  21
348133.191
  1
Pmin_TR1,433 bars
  0
INSERT
  8
P0
  2
FILLED_CIRCLE
  10
344488.878
  20
347692.074
  30
0
  50
0
  41
0.31750000000127
  42
0.31750000000127
  43
1
  62
0
  0
TEXT
  8
P0
  62
0
  10
344491.3164
  20
347694.5124
  40
1.27000000000508
  50
0
  72
0
  73
1
  11
344491.3164
  21
347694.5124
  1
P554
  0
TEXT
  8
P0
  62
0
  10
344493.878
  20
347693.074
  40
1.27000000000508
  50
0
  72
0
  73
1
  11
344493.878
  21
347693.074
  1
Pmax TR2,881 bars
  0
TEXT
  8
P0
  62
0
  10
344493.878
  20
347690.074
  40
1.27000000000508
  50
0
  72
0
  73
1
  11
344493.878
  21
347690.074
  1
Pmin_TR0,813 bars
  0
INSERT
  8
P0
  2
FILLED_CIRCLE
  10
344454.042
  20
347540.798
  30
0
  50
0
  41
0.31750000000127
  42
0.31750000000127
  43
1
  62
0
  0
TEXT
  8
P0
  62
0
  10
344456.4804
  20
347543.2364
  40
1.27000000000508
  50
0
  72
0
  73
1
  11
344456.4804
  21
347543.2364
  1
P564
  0
TEXT
  8
P0
  62
0
  10
344459.042
  20
347541.798
  40
1.27000000000508
  50
0
  72
0
  73
1
  11
344459.042
  21
347541.798
  1
Pmax TR3,125 bars
  0
TEXT
  8
P0
  62
0
  10
344459.042
  20
347538.798
  40
1.27000000000508
  50
0
  72
0
  73
1
  11
344459.042
  21
347538.798
  1
Pmin_TR1,153 bars
  0
INSERT
  8
P0
  2
FILLED_CIRCLE
  10
344891.84
  20
354035.483
  30
0
  50
0
  41
0.31750000000127
  42
0.31750000000127
  43
1
  62
0
  0
TEXT
  8
P0
  62
0
  10
344894.2784
  20
354037.9214
  40
1.27000000000508
  50
0
  72
0
  73
1
  11
344894.2784
  21
354037.9214
  1
P60
  0
TEXT
  8
P0
  62
0
  10
344896.84
  20
354036.483
  40
1.27000000000508
  50
0
  72
0
  73
1
  11
344896.84
  21
354036.483
  1
Pmax TR10,985 bars
  0
TEXT
  8
P0
  62
0
  10
344896.84
  20
354033.483
  40
1.27000000000508
  50
0
  72
0
  73
1
  11
344896.84
  21
354033.483
  1
Pmin_TR6,602 bars
  0
INSERT
  8
P0
  2
FILLED_CIRCLE
  10
344391.532
  20
346995.337
  30
0
  50
0
  41
0.31750000000127
  42
0.31750000000127
  43
1
  62
0
  0
TEXT
  8
P0
  62
0
  10
344393.9704
  20
346997.7754
  40
1.27000000000508
  50
0
  72
0
  73
1
  11
344393.9704
  21
346997.7754
  1
P600
  0
TEXT
  8
P0
  62
0
  10
344396.532
  20
346996.337
  40
1.27000000000508
  50
0
  72
0
  73
1
  11
344396.532
  21
346996.337
  1
Pmax TR2,527 bars
  0
TEXT
  8
P0
  62
0
  10
344396.532
  20
346993.337
  40
1.27000000000508
  50
0
  72
0
  73
1
  11
344396.532
  21
346993.337
  1
Pmin_TR0,930 bars
  0
INSERT
  8
P0
  2
FILLED_CIRCLE
  10
344369.027
  20
346821.852
  30
0
  50
0
  41
0.31750000000127
  42
0.31750000000127
  43
1
  62
0
  0
TEXT
  8
P0
  62
0
  10
344371.4654
  20
346824.2904
  40
1.27000000000508
  50
0
  72
0
  73
1
  11
344371.4654
  21
346824.2904
  1
P612
  0
TEXT
  8
P0
  62
0
  10
344374.027
  20
346822.852
  40
1.27000000000508
  50
0
  72
0
  73
1
  11
344374.027
  21
346822.852
  1
Pmax TR2,568 bars
  0
TEXT
  8
P0
  62
0
  10
344374.027
  20
346819.852
  40
1.27000000000508
  50
0
  72
0
  73
1
  11
344374.027
  21
346819.852
  1
Pmin_TR1,102 bars
  0
INSERT
  8
P0
  2
FILLED_CIRCLE
  10
344361.281
  20
346672.323
  30
0
  50
0
  41
0.31750000000127
  42
0.31750000000127
  43
1
  62
0
  0
TEXT
  8
P0
  62
0
  10
344363.7194
  20
346674.7614
  40
1.27000000000508
  50
0
  72
0
  73
1
  11
344363.7194
  21
346674.7614
  1
P621
  0
TEXT
  8
P0
  62
0
  10
344366.281
  20
346673.323
  40
1.27000000000508
  50
0
  72
0
  73
1
  11
344366.281
  21
346673.323
  1
Pmax TR2,262 bars
  0
TEXT
  8
P0
  62
0
  10
344366.281
  20
346670.323
  40
1.27000000000508
  50
0
  72
0
  73
1
  11
344366.281
  21
346670.323
  1
Pmin_TR0,915 bars
  0
INSERT
  8
P0
  2
FILLED_CIRCLE
  10
344373.136
  20
346397.578
  30
0
  50
0
  41
0.31750000000127
  42
0.31750000000127
  43
1
  62
0
  0
TEXT
  8
P0
  62
0
  10
344375.5744
  20
346400.0164
  40
1.27000000000508
  50
0
  72
0
  73
1
  11
344375.5744
  21
346400.0164
  1
P639
  0
TEXT
  8
P0
  62
0
  10
344378.136
  20
346398.578
  40
1.27000000000508
  50
0
  72
0
  73
1
  11
344378.136
  21
346398.578
  1
Pmax TR1,838 bars
  0
TEXT
  8
P0
  62
0
  10
344378.136
  20
346395.578
  40
1.27000000000508
  50
0
  72
0
  73
1
  11
344378.136
  21
346395.578
  1
Pmin_TR0,724 bars
  0
INSERT
  8
P0
  2
FILLED_CIRCLE
  10
344378.891
  20
346272.712
  30
0
  50
0
  41
0.31750000000127
  42
0.31750000000127
  43
1
  62
0
  0
TEXT
  8
P0
  62
0
  10
344381.3294
  20
346275.1504
  40
1.27000000000508
  50
0
  72
0
  73
1
  11
344381.3294
  21
346275.1504
  1
P648
  0
TEXT
  8
P0
  62
0
  10
344383.891
  20
346273.712
  40
1.27000000000508
  50
0
  72
0
  73
1
  11
344383.891
  21
346273.712
  1
Pmax TR2,063 bars
  0
TEXT
  8
P0
  62
0
  10
344383.891
  20
346270.712
  40
1.27000000000508
  50
0
  72
0
  73
1
  11
344383.891
  21
346270.712
  1
Pmin_TR1,062 bars
  0
INSERT
  8
P0
  2
FILLED_CIRCLE
  10
344429.661
  20
345763.037
  30
0
  50
0
  41
0.31750000000127
  42
0.31750000000127
  43
1
  62
0
  0
TEXT
  8
P0
  62
0
  10
344432.0994
  20
345765.4754
  40
1.27000000000508
  50
0
  72
0
  73
1
  11
344432.0994
  21
345765.4754
  1
P680
  0
TEXT
  8
P0
  62
0
  10
344434.661
  20
345764.037
  40
1.27000000000508
  50
0
  72
0
  73
1
  11
344434.661
  21
345764.037
  1
Pmax TR0,792 bars
  0
TEXT
  8
P0
  62
0
  10
344434.661
  20
345761.037
  40
1.27000000000508
  50
0
  72
0
  73
1
  11
344434.661
  21
345761.037
  1
Pmin_TR0,311 bars
  0
INSERT
  8
P0
  2
FILLED_CIRCLE
  10
344438.041
  20
345709.456
  30
0
  50
0
  41
0.31750000000127
  42
0.31750000000127
  43
1
  62
0
  0
TEXT
  8
P0
  62
0
  10
344440.4794
  20
345711.8944
  40
1.27000000000508
  50
0
  72
0
  73
1
  11
344440.4794
  21
345711.8944
  1
P684
  0
TEXT
  8
P0
  62
0
  10
344443.041
  20
345710.456
  40
1.27000000000508
  50
0
  72
0
  73
1
  11
344443.041
  21
345710.456
  1
Pmax TR0,760 bars
  0
TEXT
  8
P0
  62
0
  10
344443.041
  20
345707.456
  40
1.27000000000508
  50
0
  72
0
  73
1
  11
344443.041
  21
345707.456
  1
Pmin_TR0,529 bars
  0
INSERT
  8
P0
  2
FILLED_CIRCLE
  10
345097.707
  20
353784.08
  30
0
  50
0
  41
0.31750000000127
  42
0.31750000000127
  43
1
  62
0
  0
TEXT
  8
P0
  62
0
  10
345100.1454
  20
353786.5184
  40
1.27000000000508
  50
0
  72
0
  73
1
  11
345100.1454
  21
353786.5184
  1
P78
  0
TEXT
  8
P0
  62
0
  10
345102.707
  20
353785.08
  40
1.27000000000508
  50
0
  72
0
  73
1
  11
345102.707
  21
353785.08
  1
Pmax TR10,269 bars
  0
TEXT
  8
P0
  62
0
  10
345102.707
  20
353782.08
  40
1.27000000000508
  50
0
  72
0
  73
1
  11
345102.707
  21
353782.08
  1
Pmin_TR5,961 bars
  0
INSERT
  8
P0
  2
FILLED_CIRCLE
  10
345618.544
  20
349644.436
  30
0
  50
0
  41
0.31750000000127
  42
0.31750000000127
  43
1
  62
0
  0
TEXT
  8
P0
  62
0
  10
345620.9824
  20
349646.8744
  40
1.27000000000508
  50
0
  72
0
  73
1
  11
345620.9824
  21
349646.8744
  1
J-2
  0
TEXT
  8
P0
  62
0
  10
345623.544
  20
349645.436
  40
1.27000000000508
  50
0
  72
0
  73
1
  11
345623.544
  21
349645.436
  1
Pmax TR2,853 bars
  0
TEXT
  8
P0
  62
0
  10
345623.544
  20
349642.436
  40
1.27000000000508
  50
0
  72
0
  73
1
  11
345623.544
  21
349642.436
  1
Pmin_TR-0,296 bars
  0
INSERT
  8
P0
  2
FILLED_CIRCLE
  10
345709.561
  20
349826.532
  30
0
  50
0
  41
0.31750000000127
  42
0.31750000000127
  43
1
  62
0
  0
TEXT
  8
P0
  62
0
  10
345712.382338297
  20
349826.098362773
  40
1.27000000000508
  50
0
  72
0
  73
1
  11
345712.382338297
  21
349826.098362773
  1
J-3
  0
TEXT
  8
P0
  62
0
  10
345714.561
  20
349827.532
  40
1.27000000000508
  50
0
  72
0
  73
1
  11
345714.561
  21
349827.532
  1
Pmax TR3,251 bars
  0
TEXT
  8
P0
  62
0
  10
345714.561
  20
349824.532
  40
1.27000000000508
  50
0
  72
0
  73
1
  11
345714.561
  21
349824.532
  1
Pmin_TR0,037 bars
  0
INSERT
  8
BAB
  2
HYDROPNEUMATICTANK
  10
344013.834
  20
354052.408
  30
0
  50
0
  41
0.31750000000127
  42
0.31750000000127
  43
1
  62
0
  0
TEXT
  8
BAB
  62
0
  10
344015.905501319
  20
354051.911210554
  40
1.27000000000508
  50
0
  72
0
  73
1
  11
344015.905501319
  21
354051.911210554
  1
HT-1
  0
POLYLINE
  8
C400
  62
5
  66
1
  10
344037.4695
  20
354060.5555
 40
0
 41
0
 38
0
  0
VERTEX
  8
C400
  10
344013.834
  20
354052.408
  30
0
  0
VERTEX
  8
C400
  10
344061.105
  20
354068.703
  30
0
  0
SEQEND
  0
TEXT
  8
C400
  62
5
  10
344035.858019552
  20
354061.91791107
  40
1.27000000000508
  50
19.0198159778279
  72
0
  73
1
  11
344035.858019552
  21
354061.91791107
  1
C1
  0
TEXT
  8
C400
  62
5
  10
344030.990222125
  20
354063.967177476
  40
1.27000000000508
  50
19.0198159778279
  72
0
  73
1
  11
344030.990222125
  21
354063.967177476
  1
Qmax198 L/s
  0
INSERT
  8
C400
  2
FLOWARROW
  10
344037.4695
  20
354060.5555
  30
0
  50
19.0198159778279
  41
0.31750000000127
  42
0.31750000000127
  43
1
  62
5
  0
POLYLINE
  8
C500
  62
5
  66
1
  10
344487.441
  20
354252.3025
 40
0
 41
0
 38
0
  0
VERTEX
  8
C500
  10
344451.885
  20
354239.232
  30
0
  0
VERTEX
  8
C500
  10
344522.997
  20
354265.373
  30
0
  0
SEQEND
  0
TEXT
  8
C500
  62
5
  10
344485.361311963
  20
354253.469835522
  40
1.27000000000508
  50
20.1835901486195
  72
0
  73
1
  11
344485.361311963
  21
354253.469835522
  1
C10
  0
TEXT
  8
C500
  62
5
  10
344480.893766466
  20
354255.58187769
  40
1.27000000000508
  50
20.1835901486195
  72
0
  73
1
  11
344480.893766466
  21
354255.58187769
  1
Qmax198 L/s
  0
INSERT
  8
C500
  2
FLOWARROW
  10
344487.441
  20
354252.3025
  30
0
  50
20.1835901486195
  41
0.31750000000127
  42
0.31750000000127
  43
1
  62
5
  0
POLYLINE
  8
C500
  62
5
  66
1
  10
344539.274
  20
354271.3565
 40
0
 41
0
 38
0
  0
VERTEX
  8
C500
  10
344522.997
  20
354265.373
  30
0
  0
VERTEX
  8
C500
  10
344555.551
  20
354277.34
  30
0
  0
SEQEND
  0
TEXT
  8
C500
  62
5
  10
344537.194310546
  20
354272.523832998
  40
1.27000000000508
  50
20.1836597022385
  72
0
  73
1
  11
344537.194310546
  21
354272.523832998
  1
C11
  0
TEXT
  8
C500
  62
5
  10
344532.726762486
  20
354274.635869742
  40
1.27000000000508
  50
20.1836597022385
  72
0
  73
1
  11
344532.726762486
  21
354274.635869742
  1
Qmax198 L/s
  0
INSERT
  8
C500
  2
FLOWARROW
  10
344539.274
  20
354271.3565
  30
0
  50
20.1836597022385
  41
0.31750000000127
  42
0.31750000000127
  43
1
  62
5
  0
POLYLINE
  8
C500
  62
5
  66
1
  10
344723.6955
  20
354156.4115
 40
0
 41
0
 38
0
  0
VERTEX
  8
C500
  10
344555.551
  20
354277.34
  30
0
  0
VERTEX
  8
C500
  10
344891.84
  20
354035.483
  30
0
  0
SEQEND
  0
TEXT
  8
C500
  62
5
  10
344723.496462395
  20
354158.788085489
  40
1.27000000000508
  50
324.276541715155
  72
0
  73
1
  11
344723.496462395
  21
354158.788085489
  1
C12
  0
TEXT
  8
C500
  62
5
  10
344722.741281289
  20
354163.671668843
  40
1.27000000000508
  50
324.276541715155
  72
0
  73
1
  11
344722.741281289
  21
354163.671668843
  1
Qmax198 L/s
  0
INSERT
  8
C500
  2
FLOWARROW
  10
344723.6955
  20
354156.4115
  30
0
  50
324.276541715155
  41
0.31750000000127
  42
0.31750000000127
  43
1
  62
5
  0
POLYLINE
  8
C500
  62
5
  66
1
  10
344994.7735
  20
353909.7815
 40
0
 41
0
 38
0
  0
VERTEX
  8
C500
  10
344891.84
  20
354035.483
  30
0
  0
VERTEX
  8
C500
  10
345097.707
  20
353784.08
  30
0
  0
SEQEND
  0
TEXT
  8
C500
  62
5
  10
344995.194852201
  20
353912.128889375
  40
1.27000000000508
  50
309.313103125008
  72
0
  73
1
  11
344995.194852201
  21
353912.128889375
  1
C13
  0
TEXT
  8
C500
  62
5
  10
344995.726232702
  20
353917.041863997
  40
1.27000000000508
  50
309.313103125008
  72
0
  73
1
  11
344995.726232702
  21
353917.041863997
  1
Qmax198 L/s
  0
INSERT
  8
C500
  2
FLOWARROW
  10
344994.7735
  20
353909.7815
  30
0
  50
309.313103125008
  41
0.31750000000127
  42
0.31750000000127
  43
1
  62
5
  0
POLYLINE
  8
C500
  62
5
  66
1
  10
345359.137
  20
353464.4645
 40
0
 41
0
 38
0
  0
VERTEX
  8
C500
  10
345097.707
  20
353784.08
  30
0
  0
VERTEX
  8
C500
  10
345620.567
  20
353144.849
  30
0
  0
SEQEND
  0
TEXT
  8
C500
  62
5
  10
345359.559646755
  20
353466.811656636
  40
1.27000000000508
  50
309.281503680627
  72
0
  73
1
  11
345359.559646755
  21
353466.811656636
  1
C14
  0
TEXT
  8
C500
  62
5
  10
345360.093736752
  20
353471.724337447
  40
1.27000000000508
  50
309.281503680627
  72
0
  73
1
  11
345360.093736752
  21
353471.724337447
  1
Qmax198 L/s
  0
INSERT
  8
C500
  2
FLOWARROW
  10
345359.137
  20
353464.4645
  30
0
  50
309.281503680627
  41
0.31750000000127
  42
0.31750000000127
  43
1
  62
5
  0
POLYLINE
  8
C500
  62
3
  66
1
  10
345644.71
  20
353116.7285
 40
0
 41
0
 38
0
  0
VERTEX
  8
C500
  10
345620.567
  20
353144.849
  30
0
  0
VERTEX
  8
C500
  10
345668.853
  20
353088.608
  30
0
  0
SEQEND
  0
TEXT
  8
C500
  62
3
  10
345645.076556246
  20
353119.085067646
  40
1.27000000000508
  50
310.647909082436
  72
0
  73
1
  11
345645.076556246
  21
353119.085067646
  1
C15
  0
TEXT
  8
C500
  62
3
  10
345645.493346522
  20
353124.009087421
  40
1.27000000000508
  50
310.647909082436
  72
0
  73
1
  11
345645.493346522
  21
353124.009087421
  1
Qmax198 L/s
  0
INSERT
  8
C500
  2
FLOWARROW
  10
345644.71
  20
353116.7285
  30
0
  50
310.647909082436
  41
0.31750000000127
  42
0.31750000000127
  43
1
  62
3
  0
POLYLINE
  8
C500
  62
3
  66
1
  10
345871.915
  20
352868.266
 40
0
 41
0
 38
0
  0
VERTEX
  8
C500
  10
345668.853
  20
353088.608
  30
0
  0
VERTEX
  8
C500
  10
346074.977
  20
352647.924
  30
0
  0
SEQEND
  0
TEXT
  8
C500
  62
3
  10
345872.19846885
  20
352870.633999148
  40
1.27000000000508
  50
312.662936763577
  72
0
  73
1
  11
345872.19846885
  21
352870.633999148
  1
C16
  0
TEXT
  8
C500
  62
3
  10
345872.441864896
  20
352875.569629122
  40
1.27000000000508
  50
312.662936763577
  72
0
  73
1
  11
345872.441864896
  21
352875.569629122
  1
Qmax198 L/s
  0
INSERT
  8
C500
  2
FLOWARROW
  10
345871.915
  20
352868.266
  30
0
  50
312.662936763577
  41
0.31750000000127
  42
0.31750000000127
  43
1
  62
3
  0
POLYLINE
  8
C500
  62
3
  66
1
  10
346124.947
  20
352592.0075
 40
0
 41
0
 38
0
  0
VERTEX
  8
C500
  10
346074.977
  20
352647.924
  30
0
  0
VERTEX
  8
C500
  10
346174.917
  20
352536.091
  30
0
  0
SEQEND
  0
TEXT
  8
C500
  62
3
  10
346125.266690201
  20
352594.37088163
  40
1.27000000000508
  50
311.785691787288
  72
0
  73
1
  11
346125.266690201
  21
352594.37088163
  1
C17
  0
TEXT
  8
C500
  62
3
  10
346125.585623275
  20
352599.302206662
  40
1.27000000000508
  50
311.785691787288
  72
0
  73
1
  11
346125.585623275
  21
352599.302206662
  1
Qmax198 L/s
  0
INSERT
  8
C500
  2
FLOWARROW
  10
346124.947
  20
352592.0075
  30
0
  50
311.785691787288
  41
0.31750000000127
  42
0.31750000000127
  43
1
  62
3
  0
POLYLINE
  8
C500
  62
3
  66
1
  10
346224.4025
  20
352479.7375
 40
0
 41
0
 38
0
  0
VERTEX
  8
C500
  10
346174.917
  20
352536.091
  30
0
  0
VERTEX
  8
C500
  10
346273.888
  20
352423.384
  30
0
  0
SEQEND
  0
TEXT
  8
C500
  62
3
  10
346224.742739027
  20
352482.098010953
  40
1.27000000000508
  50
311.287224253317
  72
0
  73
1
  11
346224.742739027
  21
352482.098010953
  1
C18
  0
TEXT
  8
C500
  62
3
  10
346225.104561523
  20
352487.026374714
  40
1.27000000000508
  50
311.287224253317
  72
0
  73
1
  11
346225.104561523
  21
352487.026374714
  1
Qmax198 L/s
  0
INSERT
  8
C500
  2
FLOWARROW
  10
346224.4025
  20
352479.7375
  30
0
  50
311.287224253317
  41
0.31750000000127
  42
0.31750000000127
  43
1
  62
3
  0
POLYLINE
  8
C500
  62
3
  66
1
  10
346368.3585
  20
352323.5005
 40
0
 41
0
 38
0
  0
VERTEX
  8
C500
  10
346273.888
  20
352423.384
  30
0
  0
VERTEX
  8
C500
  10
346462.829
  20
352223.617
  30
0
  0
SEQEND
  0
TEXT
  8
C500
  62
3
  10
346368.611291245
  20
352325.871970249
  40
1.27000000000508
  50
313.404653877585
  72
0
  73
1
  11
346368.611291245
  21
352325.871970249
  1
C19
  0
TEXT
  8
C500
  62
3
  10
346368.790774948
  20
352330.810337436
  40
1.27000000000508
  50
313.404653877585
  72
0
  73
1
  11
346368.790774948
  21
352330.810337436
  1
Qmax198 L/s
  0
INSERT
  8
C500
  2
FLOWARROW
  10
346368.3585
  20
352323.5005
  30
0
  50
313.404653877585
  41
0.31750000000127
  42
0.31750000000127
  43
1
  62
3
  0
POLYLINE
  8
C400
  62
5
  66
1
  10
344072.902
  20
354072.7695
 40
0
 41
0
 38
0
  0
VERTEX
  8
C400
  10
344061.105
  20
354068.703
  30
0
  0
VERTEX
  8
C400
  10
344084.699
  20
354076.836
  30
0
  0
SEQEND
  0
TEXT
  8
C400
  62
5
  10
344071.290529583
  20
354074.131922934
  40
1.27000000000508
  50
19.0193941476346
  72
0
  73
1
  11
344071.290529583
  21
354074.131922934
  1
C2
  0
TEXT
  8
C400
  62
5
  10
344066.422747243
  20
354076.181225178
  40
1.27000000000508
  50
19.0193941476346
  72
0
  73
1
  11
344066.422747243
  21
354076.181225178
  1
Qmax198 L/s
  0
INSERT
  8
C400
  2
FLOWARROW
  10
344072.902
  20
354072.7695
  30
0
  50
19.0193941476346
  41
0.31750000000127
  42
0.31750000000127
  43
1
  62
5
  0
POLYLINE
  8
C500
  62
3
  66
1
  10
346489.324
  20
352197.143
 40
0
 41
0
 38
0
  0
VERTEX
  8
C500
  10
346462.829
  20
352223.617
  30
0
  0
VERTEX
  8
C500
  10
346515.819
  20
352170.669
  30
0
  0
SEQEND
  0
TEXT
  8
C500
  62
3
  10
346489.509727842
  20
352199.52066266
  40
1.27000000000508
  50
315.022715386477
  72
0
  73
1
  11
346489.509727842
  21
352199.52066266
  1
C20
  0
TEXT
  8
C500
  62
3
  10
346489.549696552
  20
352204.462128776
  40
1.27000000000508
  50
315.022715386477
  72
0
  73
1
  11
346489.549696552
  21
352204.462128776
  1
Qmax198 L/s
  0
INSERT
  8
C500
  2
FLOWARROW
  10
346489.324
  20
352197.143
  30
0
  50
315.022715386477
  41
0.31750000000127
  42
0.31750000000127
  43
1
  62
3
  0
POLYLINE
  8
C500
  62
3
  66
1
  10
346739.333
  20
352081.0315
 40
0
 41
0
 38
0
  0
VERTEX
  8
C500
  10
346515.819
  20
352170.669
  30
0
  0
VERTEX
  8
C500
  10
346962.847
  20
351991.394
  30
0
  0
SEQEND
  0
TEXT
  8
C500
  62
3
  10
346738.570019063
  20
352083.291065145
  40
1.27000000000508
  50
338.147362773521
  72
0
  73
1
  11
346738.570019063
  21
352083.291065145
  1
C21
  0
TEXT
  8
C500
  62
3
  10
346736.666100731
  20
352087.851194514
  40
1.27000000000508
  50
338.147362773521
  72
0
  73
1
  11
346736.666100731
  21
352087.851194514
  1
Qmax198 L/s
  0
INSERT
  8
C500
  2
FLOWARROW
  10
346739.333
  20
352081.0315
  30
0
  50
338.147362773521
  41
0.31750000000127
  42
0.31750000000127
  43
1
  62
3
  0
POLYLINE
  8
C500
  62
3
  66
1
  10
346841.6205
  20
351698.058
 40
0
 41
0
 38
0
  0
VERTEX
  8
C500
  10
346962.847
  20
351991.394
  30
0
  0
VERTEX
  8
C500
  10
346720.394
  20
351404.722
  30
0
  0
SEQEND
  0
TEXT
  8
C500
  62
3
  10
346839.353054471
  20
351697.318767068
  40
1.27000000000508
  50
67.5462385106191
  72
0
  73
1
  11
346839.353054471
  21
351697.318767068
  1
C22
  0
TEXT
  8
C500
  62
3
  10
346834.773201296
  20
351695.462795685
  40
1.27000000000508
  50
67.5462385106191
  72
0
  73
1
  11
346834.773201296
  21
351695.462795685
  1
Qmax198 L/s
  0
INSERT
  8
C500
  2
FLOWARROW
  10
346841.6205
  20
351698.058
  30
0
  50
247.546238510619
  41
0.31750000000127
  42
0.31750000000127
  43
1
  62
3
  0
POLYLINE
  8
C500
  62
3
  66
1
  10
346683.2355
  20
351339.7765
 40
0
 41
0
 38
0
  0
VERTEX
  8
C500
  10
346720.394
  20
351404.722
  30
0
  0
VERTEX
  8
C500
  10
346646.077
  20
351274.831
  30
0
  0
SEQEND
  0
TEXT
  8
C500
  62
3
  10
346680.892330548
  20
351339.332279928
  40
1.27000000000508
  50
60.224013376601
  72
0
  73
1
  11
346680.892330548
  21
351339.332279928
  1
C23
  0
TEXT
  8
C500
  62
3
  10
346676.113283353
  20
351338.075143185
  40
1.27000000000508
  50
60.224013376601
  72
0
  73
1
  11
346676.113283353
  21
351338.075143185
  1
Qmax198 L/s
  0
INSERT
  8
C500
  2
FLOWARROW
  10
346683.2355
  20
351339.7765
  30
0
  50
240.224013376601
  41
0.31750000000127
  42
0.31750000000127
  43
1
  62
3
  0
POLYLINE
  8
C500
  62
3
  66
1
  10
346455.34
  20
351044.616
 40
0
 41
0
 38
0
  0
VERTEX
  8
C500
  10
346646.077
  20
351274.831
  30
0
  0
VERTEX
  8
C500
  10
346264.603
  20
350814.401
  30
0
  0
SEQEND
  0
TEXT
  8
C500
  62
3
  10
346452.955368391
  20
351044.57985247
  40
1.27000000000508
  50
50.3576802442871
  72
0
  73
1
  11
346452.955368391
  21
351044.57985247
  1
C24
  0
TEXT
  8
C500
  62
3
  10
346448.031591778
  20
351044.160199352
  40
1.27000000000508
  50
50.3576802442871
  72
0
  73
1
  11
346448.031591778
  21
351044.160199352
  1
Qmax198 L/s
  0
INSERT
  8
C500
  2
FLOWARROW
  10
346455.34
  20
351044.616
  30
0
  50
230.357680244287
  41
0.31750000000127
  42
0.31750000000127
  43
1
  62
3
  0
POLYLINE
  8
C500
  62
3
  66
1
  10
346086.3185
  20
350497.1915
 40
0
 41
0
 38
0
  0
VERTEX
  8
C500
  10
346264.603
  20
350814.401
  30
0
  0
VERTEX
  8
C500
  10
345908.034
  20
350179.982
  30
0
  0
SEQEND
  0
TEXT
  8
C500
  62
3
  10
346083.978796842
  20
350496.729370487
  40
1.27000000000508
  50
60.6622616439399
  72
0
  73
1
  11
346083.978796842
  21
350496.729370487
  1
C25
  0
TEXT
  8
C500
  62
3
  10
346079.209505035
  20
350495.435716539
  40
1.27000000000508
  50
60.6622616439399
  72
0
  73
1
  11
346079.209505035
  21
350495.435716539
  1
Qmax198 L/s
  0
INSERT
  8
C500
  2
FLOWARROW
  10
346086.3185
  20
350497.1915
  30
0
  50
240.66226164394
  41
0.31750000000127
  42
0.31750000000127
  43
1
  62
3
  0
POLYLINE
  8
C500
  62
3
  66
1
  10
345808.7975
  20
350003.257
 40
0
 41
0
 38
0
  0
VERTEX
  8
C500
  10
345908.034
  20
350179.982
  30
0
  0
VERTEX
  8
C500
  10
345709.561
  20
349826.532
  30
0
  0
SEQEND
  0
TEXT
  8
C500
  62
3
  10
345806.457976025
  20
350002.793964231
  40
1.27000000000508
  50
60.6844553158364
  72
0
  73
1
  11
345806.457976025
  21
350002.793964231
  1
C26
  0
TEXT
  8
C500
  62
3
  10
345801.689185676
  20
350001.498462982
  40
1.27000000000508
  50
60.6844553158364
  72
0
  73
1
  11
345801.689185676
  21
350001.498462982
  1
Qmax198 L/s
  0
INSERT
  8
C500
  2
FLOWARROW
  10
345808.7975
  20
350003.257
  30
0
  50
240.684455315836
  41
0.31750000000127
  42
0.31750000000127
  43
1
  62
3
  0
POLYLINE
  8
C500
  62
3
  66
1
  10
345664.0525
  20
349735.484
 40
0
 41
0
 38
0
  0
VERTEX
  8
C500
  10
345709.561
  20
349826.532
  30
0
  0
VERTEX
  8
C500
  10
345618.544
  20
349644.436
  30
0
  0
SEQEND
  0
TEXT
  8
C500
  62
3
  10
345661.737969098
  20
349734.908916304
  40
1.27000000000508
  50
63.4427525752793
  72
0
  73
1
  11
345661.737969098
  21
349734.908916304
  1
C27
  0
TEXT
  8
C500
  62
3
  10
345657.037046852
  20
349733.385428558
  40
1.27000000000508
  50
63.4427525752793
  72
0
  73
1
  11
345657.037046852
  21
349733.385428558
  1
Qmax198 L/s
  0
INSERT
  8
C500
  2
FLOWARROW
  10
345664.0525
  20
349735.484
  30
0
  50
243.442752575279
  41
0.31750000000127
  42
0.31750000000127
  43
1
  62
3
  0
POLYLINE
  8
C500
  62
3
  66
1
  10
345428.057
  20
349469.7245
 40
0
 41
0
 38
0
  0
VERTEX
  8
C500
  10
345618.544
  20
349644.436
  30
0
  0
VERTEX
  8
C500
  10
345237.57
  20
349295.013
  30
0
  0
SEQEND
  0
TEXT
  8
C500
  62
3
  10
345425.689682436
  20
349470.013605701
  40
1.27000000000508
  50
42.5265287350219
  72
0
  73
1
  11
345425.689682436
  21
349470.013605701
  1
C28
  0
TEXT
  8
C500
  62
3
  10
345420.754645919
  20
349470.268751642
  40
1.27000000000508
  50
42.5265287350219
  72
0
  73
1
  11
345420.754645919
  21
349470.268751642
  1
Qmax198 L/s
  0
INSERT
  8
C500
  2
FLOWARROW
  10
345428.057
  20
349469.7245
  30
0
  50
222.526528735022
  41
0.31750000000127
  42
0.31750000000127
  43
1
  62
3
  0
POLYLINE
  8
C500
  62
3
  66
1
  10
345127.422
  20
349185.2025
 40
0
 41
0
 38
0
  0
VERTEX
  8
C500
  10
345237.57
  20
349295.013
  30
0
  0
VERTEX
  8
C500
  10
345017.274
  20
349075.392
  30
0
  0
SEQEND
  0
TEXT
  8
C500
  62
3
  10
345125.044700383
  20
349185.392818372
  40
1.27000000000508
  50
44.9120865508199
  72
0
  73
1
  11
345125.044700383
  21
349185.392818372
  1
C29
  0
TEXT
  8
C500
  62
3
  10
345120.10332065
  20
349185.44232817
  40
1.27000000000508
  50
44.9120865508199
  72
0
  73
1
  11
345120.10332065
  21
349185.44232817
  1
Qmax198 L/s
  0
INSERT
  8
C500
  2
FLOWARROW
  10
345127.422
  20
349185.2025
  30
0
  50
224.91208655082
  41
0.31750000000127
  42
0.31750000000127
  43
1
  62
3
  0
POLYLINE
  8
C400
  62
5
  66
1
  10
344092.0115
  20
354076.0245
 40
0
 41
0
 38
0
  0
VERTEX
  8
C400
  10
344084.699
  20
354076.836
  30
0
  0
VERTEX
  8
C400
  10
344099.324
  20
354075.213
  30
0
  0
SEQEND
  0
TEXT
  8
C400
  62
5
  10
344091.138577983
  20
354077.945708033
  40
1.27000000000508
  50
353.66754813756
  72
0
  73
1
  11
344091.138577983
  21
354077.945708033
  1
C3
  0
TEXT
  8
C400
  62
5
  10
344087.617046714
  20
354081.881919678
  40
1.27000000000508
  50
353.66754813756
  72
0
  73
1
  11
344087.617046714
  21
354081.881919678
  1
Qmax198 L/s
  0
INSERT
  8
C400
  2
FLOWARROW
  10
344092.0115
  20
354076.0245
  30
0
  50
353.66754813756
  41
0.31750000000127
  42
0.31750000000127
  43
1
  62
5
  0
POLYLINE
  8
C500
  62
3
  66
1
  10
344945.887
  20
348994.3775
 40
0
 41
0
 38
0
  0
VERTEX
  8
C500
  10
345017.274
  20
349075.392
  30
0
  0
VERTEX
  8
C500
  10
344874.5
  20
348913.363
  30
0
  0
SEQEND
  0
TEXT
  8
C500
  62
3
  10
344943.502372247
  20
348994.413900986
  40
1.27000000000508
  50
48.6146828822597
  72
0
  73
1
  11
344943.502372247
  21
348994.413900986
  1
C30
  0
TEXT
  8
C500
  62
3
  10
344938.568109471
  20
348994.144205353
  40
1.27000000000508
  50
48.6146828822597
  72
0
  73
1
  11
344938.568109471
  21
348994.144205353
  1
Qmax198 L/s
  0
INSERT
  8
C500
  2
FLOWARROW
  10
344945.887
  20
348994.3775
  30
0
  50
228.61468288226
  41
0.31750000000127
  42
0.31750000000127
  43
1
  62
3
  0
POLYLINE
  8
C500
  62
3
  66
1
  10
344822.841
  20
348851.634
 40
0
 41
0
 38
0
  0
VERTEX
  8
C500
  10
344874.5
  20
348913.363
  30
0
  0
VERTEX
  8
C500
  10
344771.182
  20
348789.905
  30
0
  0
SEQEND
  0
TEXT
  8
C500
  62
3
  10
344820.456219128
  20
348851.609612546
  40
1.27000000000508
  50
50.0751291378913
  72
0
  73
1
  11
344820.456219128
  21
348851.609612546
  1
C31
  0
TEXT
  8
C500
  62
3
  10
344815.530432897
  20
348851.214245777
  40
1.27000000000508
  50
50.0751291378913
  72
0
  73
1
  11
344815.530432897
  21
348851.214245777
  1
Qmax198 L/s
  0
INSERT
  8
C500
  2
FLOWARROW
  10
344822.841
  20
348851.634
  30
0
  50
230.075129137891
  41
0.31750000000127
  42
0.31750000000127
  43
1
  62
3
  0
POLYLINE
  8
C500
  62
3
  66
1
  10
344670.497
  20
348597.267
 40
0
 41
0
 38
0
  0
VERTEX
  8
C500
  10
344771.182
  20
348789.905
  30
0
  0
VERTEX
  8
C500
  10
344569.812
  20
348404.629
  30
0
  0
SEQEND
  0
TEXT
  8
C500
  62
3
  10
344668.172438287
  20
348596.733907705
  40
1.27000000000508
  50
62.405539234835
  72
0
  73
1
  11
344668.172438287
  21
348596.733907705
  1
C32
  0
TEXT
  8
C500
  62
3
  10
344663.444708422
  20
348595.295764735
  40
1.27000000000508
  50
62.405539234835
  72
0
  73
1
  11
344663.444708422
  21
348595.295764735
  1
Qmax198 L/s
  0
INSERT
  8
C500
  2
FLOWARROW
  10
344670.497
  20
348597.267
  30
0
  50
242.405539234835
  41
0.31750000000127
  42
0.31750000000127
  43
1
  62
3
  0
POLYLINE
  8
C500
  62
3
  66
1
  10
344568.356
  20
348269.91
 40
0
 41
0
 38
0
  0
VERTEX
  8
C500
  10
344569.812
  20
348404.629
  30
0
  0
VERTEX
  8
C500
  10
344566.9
  20
348135.191
  30
0
  0
SEQEND
  0
TEXT
  8
C500
  62
3
  10
344566.526158315
  20
348268.380472634
  40
1.27000000000508
  50
89.3807895908585
  72
0
  73
1
  11
344566.526158315
  21
348268.380472634
  1
C33
  0
TEXT
  8
C500
  62
3
  10
344562.965143084
  20
348264.954271327
  40
1.27000000000508
  50
89.3807895908585
  72
0
  73
1
  11
344562.965143084
  21
348264.954271327
  1
Qmax198 L/s
  0
INSERT
  8
C500
  2
FLOWARROW
  10
344568.356
  20
348269.91
  30
0
  50
269.380789590859
  41
0.31750000000127
  42
0.31750000000127
  43
1
  62
3
  0
POLYLINE
  8
C500
  62
3
  66
1
  10
344527.889
  20
347913.6325
 40
0
 41
0
 38
0
  0
VERTEX
  8
C500
  10
344566.9
  20
348135.191
  30
0
  0
VERTEX
  8
C500
  10
344488.878
  20
347692.074
  30
0
  0
SEQEND
  0
TEXT
  8
C500
  62
3
  10
344525.834618973
  20
347912.421181235
  40
1.27000000000508
  50
80.0139808422256
  72
0
  73
1
  11
344525.834618973
  21
347912.421181235
  1
C34
  0
TEXT
  8
C500
  62
3
  10
344521.763454749
  20
347909.620233763
  40
1.27000000000508
  50
80.0139808422256
  72
0
  73
1
  11
344521.763454749
  21
347909.620233763
  1
Qmax198 L/s
  0
INSERT
  8
C500
  2
FLOWARROW
  10
344527.889
  20
347913.6325
  30
0
  50
260.013980842226
  41
0.31750000000127
  42
0.31750000000127
  43
1
  62
3
  0
POLYLINE
  8
C500
  62
3
  66
1
  10
344471.46
  20
347616.436
 40
0
 41
0
 38
0
  0
VERTEX
  8
C500
  10
344488.878
  20
347692.074
  30
0
  0
VERTEX
  8
C500
  10
344454.042
  20
347540.798
  30
0
  0
SEQEND
  0
TEXT
  8
C500
  62
3
  10
344469.345384492
  20
347615.333196388
  40
1.27000000000508
  50
77.0319411003476
  72
0
  73
1
  11
344469.345384492
  21
347615.333196388
  1
C35
  0
TEXT
  8
C500
  62
3
  10
344465.134019608
  20
347612.747835544
  40
1.27000000000508
  50
77.0319411003476
  72
0
  73
1
  11
344465.134019608
  21
347612.747835544
  1
Qmax198 L/s
  0
INSERT
  8
C500
  2
FLOWARROW
  10
344471.46
  20
347616.436
  30
0
  50
257.031941100348
  41
0.31750000000127
  42
0.31750000000127
  43
1
  62
3
  0
POLYLINE
  8
C500
  62
3
  66
1
  10
344422.787
  20
347268.0675
 40
0
 41
0
 38
0
  0
VERTEX
  8
C500
  10
344454.042
  20
347540.798
  30
0
  0
VERTEX
  8
C500
  10
344391.532
  20
346995.337
  30
0
  0
SEQEND
  0
TEXT
  8
C500
  62
3
  10
344420.809199626
  20
347266.734803398
  40
1.27000000000508
  50
83.4624062351531
  72
0
  73
1
  11
344420.809199626
  21
347266.734803398
  1
C36
  0
TEXT
  8
C500
  62
3
  10
344416.913883992
  20
347263.694046751
  40
1.27000000000508
  50
83.4624062351531
  72
0
  73
1
  11
344416.913883992
  21
347263.694046751
  1
Qmax198 L/s
  0
INSERT
  8
C500
  2
FLOWARROW
  10
344422.787
  20
347268.0675
  30
0
  50
263.462406235153
  41
0.31750000000127
  42
0.31750000000127
  43
1
  62
3
  0
POLYLINE
  8
C500
  62
3
  66
1
  10
344380.2795
  20
346908.5945
 40
0
 41
0
 38
0
  0
VERTEX
  8
C500
  10
344391.532
  20
346995.337
  30
0
  0
VERTEX
  8
C500
  10
344369.027
  20
346821.852
  30
0
  0
SEQEND
  0
TEXT
  8
C500
  62
3
  10
344378.282062603
  20
346907.29141965
  40
1.27000000000508
  50
82.6086938574999
  72
0
  73
1
  11
344378.282062603
  21
346907.29141965
  1
C37
  0
TEXT
  8
C500
  62
3
  10
344374.341873489
  20
346904.309038953
  40
1.27000000000508
  50
82.6086938574999
  72
0
  73
1
  11
344374.341873489
  21
346904.309038953
  1
Qmax198 L/s
  0
INSERT
  8
C500
  2
FLOWARROW
  10
344380.2795
  20
346908.5945
  30
0
  50
262.6086938575
  41
0.31750000000127
  42
0.31750000000127
  43
1
  62
3
  0
POLYLINE
  8
C500
  62
3
  66
1
  10
344365.154
  20
346747.0875
 40
0
 41
0
 38
0
  0
VERTEX
  8
C500
  10
344369.027
  20
346821.852
  30
0
  0
VERTEX
  8
C500
  10
344361.281
  20
346672.323
  30
0
  0
SEQEND
  0
TEXT
  8
C500
  62
3
  10
344363.263076947
  20
346745.634164333
  40
1.27000000000508
  50
87.0345768850783
  72
0
  73
1
  11
344363.263076947
  21
346745.634164333
  1
C38
  0
TEXT
  8
C500
  62
3
  10
344359.564786131
  20
346742.356614956
  40
1.27000000000508
  50
87.0345768850783
  72
0
  73
1
  11
344359.564786131
  21
346742.356614956
  1
Qmax198 L/s
  0
INSERT
  8
C500
  2
FLOWARROW
  10
344365.154
  20
346747.0875
  30
0
  50
267.034576885078
  41
0.31750000000127
  42
0.31750000000127
  43
1
  62
3
  0
POLYLINE
  8
C500
  62
3
  66
1
  10
344367.2085
  20
346534.9505
 40
0
 41
0
 38
0
  0
VERTEX
  8
C500
  10
344361.281
  20
346672.323
  30
0
  0
VERTEX
  8
C500
  10
344373.136
  20
346397.578
  30
0
  0
SEQEND
  0
TEXT
  8
C500
  62
3
  10
344368.95323453
  20
346536.57643849
  40
1.27000000000508
  50
272.470728817544
  72
0
  73
1
  11
344368.95323453
  21
346536.57643849
  1
C39
  0
TEXT
  8
C500
  62
3
  10
344372.324388424
  20
346540.189609715
  40
1.27000000000508
  50
272.470728817544
  72
0
  73
1
  11
344372.324388424
  21
346540.189609715
  1
Qmax198 L/s
  0
INSERT
  8
C500
  2
FLOWARROW
  10
344367.2085
  20
346534.9505
  30
0
  50
272.470728817544
  41
0.31750000000127
  42
0.31750000000127
  43
1
  62
3
  0
POLYLINE
  8
C400
  62
5
  66
1
  10
344183.714
  20
354065.8465
 40
0
 41
0
 38
0
  0
VERTEX
  8
C400
  10
344099.324
  20
354075.213
  30
0
  0
VERTEX
  8
C400
  10
344268.104
  20
354056.48
  30
0
  0
SEQEND
  0
TEXT
  8
C400
  62
5
  10
344182.841108879
  20
354067.767722071
  40
1.27000000000508
  50
353.666626727285
  72
0
  73
1
  11
344182.841108879
  21
354067.767722071
  1
C4
  0
TEXT
  8
C400
  62
5
  10
344179.319640911
  20
354071.703990348
  40
1.27000000000508
  50
353.666626727285
  72
0
  73
1
  11
344179.319640911
  21
354071.703990348
  1
Qmax198 L/s
  0
INSERT
  8
C400
  2
FLOWARROW
  10
344183.714
  20
354065.8465
  30
0
  50
353.666626727285
  41
0.31750000000127
  42
0.31750000000127
  43
1
  62
5
  0
POLYLINE
  8
C500
  62
3
  66
1
  10
344376.0135
  20
346335.145
 40
0
 41
0
 38
0
  0
VERTEX
  8
C500
  10
344373.136
  20
346397.578
  30
0
  0
VERTEX
  8
C500
  10
344378.891
  20
346272.712
  30
0
  0
SEQEND
  0
TEXT
  8
C500
  62
3
  10
344377.753455771
  20
346336.776051339
  40
1.27000000000508
  50
272.63886108801
  72
0
  73
1
  11
344377.753455771
  21
346336.776051339
  1
C40
  0
TEXT
  8
C500
  62
3
  10
344381.113992453
  20
346340.399099515
  40
1.27000000000508
  50
272.63886108801
  72
0
  73
1
  11
344381.113992453
  21
346340.399099515
  1
Qmax198 L/s
  0
INSERT
  8
C500
  2
FLOWARROW
  10
344376.0135
  20
346335.145
  30
0
  50
272.63886108801
  41
0.31750000000127
  42
0.31750000000127
  43
1
  62
3
  0
POLYLINE
  8
C500
  62
3
  66
1
  10
344404.276
  20
346017.8745
 40
0
 41
0
 38
0
  0
VERTEX
  8
C500
  10
344378.891
  20
346272.712
  30
0
  0
VERTEX
  8
C500
  10
344429.661
  20
345763.037
  30
0
  0
SEQEND
  0
TEXT
  8
C500
  62
3
  10
344405.926714631
  20
346019.595812221
  40
1.27000000000508
  50
275.688609899164
  72
0
  73
1
  11
344405.926714631
  21
346019.595812221
  1
C41
  0
TEXT
  8
C500
  62
3
  10
344409.089734709
  20
346023.392519855
  40
1.27000000000508
  50
275.688609899164
  72
0
  73
1
  11
344409.089734709
  21
346023.392519855
  1
Qmax198 L/s
  0
INSERT
  8
C500
  2
FLOWARROW
  10
344404.276
  20
346017.8745
  30
0
  50
275.688609899164
  41
0.31750000000127
  42
0.31750000000127
  43
1
  62
3
  0
POLYLINE
  8
C500
  62
3
  66
1
  10
344433.851
  20
345736.2465
 40
0
 41
0
 38
0
  0
VERTEX
  8
C500
  10
344429.661
  20
345763.037
  30
0
  0
VERTEX
  8
C500
  10
344438.041
  20
345709.456
  30
0
  0
SEQEND
  0
TEXT
  8
C500
  62
3
  10
344435.403042933
  20
345738.057283611
  40
1.27000000000508
  50
278.888977106857
  72
0
  73
1
  11
344435.403042933
  21
345738.057283611
  1
C42
  0
TEXT
  8
C500
  62
3
  10
344438.349167757
  20
345742.024654706
  40
1.27000000000508
  50
278.888977106857
  72
0
  73
1
  11
344438.349167757
  21
345742.024654706
  1
Qmax198 L/s
  0
INSERT
  8
C500
  2
FLOWARROW
  10
344433.851
  20
345736.2465
  30
0
  50
278.888977106857
  41
0.31750000000127
  42
0.31750000000127
  43
1
  62
3
  0
POLYLINE
  8
C500
  62
3
  66
1
  10
344435.667
  20
345694.1515
 40
0
 41
0
 38
0
  0
VERTEX
  8
C500
  10
344438.041
  20
345709.456
  30
0
  0
VERTEX
  8
C500
  10
344433.293
  20
345678.847
  30
0
  0
SEQEND
  0
TEXT
  8
C500
  62
3
  10
344433.637752619
  20
345692.898531676
  40
1.27000000000508
  50
81.1826773925819
  72
0
  73
1
  11
344433.637752619
  21
345692.898531676
  1
C43
  0
TEXT
  8
C500
  62
3
  10
344429.624563947
  20
345690.015130636
  40
1.27000000000508
  50
81.1826773925819
  72
0
  73
1
  11
344429.624563947
  21
345690.015130636
  1
Qmax198 L/s
  0
INSERT
  8
C500
  2
FLOWARROW
  10
344435.667
  20
345694.1515
  30
0
  50
261.182677392582
  41
0.31750000000127
  42
0.31750000000127
  43
1
  62
3
  0
POLYLINE
  8
C500
  62
5
  66
1
  10
344288.957
  20
354081.7405
 40
0
 41
0
 38
0
  0
VERTEX
  8
C500
  10
344268.104
  20
354056.48
  30
0
  0
VERTEX
  8
C500
  10
344309.81
  20
354107.001
  30
0
  0
SEQEND
  0
TEXT
  8
C500
  62
5
  10
344286.871465693
  20
354082.062338173
  40
1.27000000000508
  50
50.459710135247
  72
0
  73
1
  11
344286.871465693
  21
354082.062338173
  1
C5
  0
TEXT
  8
C500
  62
5
  10
344281.649415036
  20
354081.271685579
  40
1.27000000000508
  50
50.459710135247
  72
0
  73
1
  11
344281.649415036
  21
354081.271685579
  1
Qmax198 L/s
  0
INSERT
  8
C500
  2
FLOWARROW
  10
344288.957
  20
354081.7405
  30
0
  50
50.459710135247
  41
0.31750000000127
  42
0.31750000000127
  43
1
  62
5
  0
POLYLINE
  8
C500
  62
5
  66
1
  10
344333.683
  20
354135.9205
 40
0
 41
0
 38
0
  0
VERTEX
  8
C500
  10
344309.81
  20
354107.001
  30
0
  0
VERTEX
  8
C500
  10
344357.556
  20
354164.84
  30
0
  0
SEQEND
  0
TEXT
  8
C500
  62
5
  10
344331.597461916
  20
354136.242313695
  40
1.27000000000508
  50
50.460382612032
  72
0
  73
1
  11
344331.597461916
  21
354136.242313695
  1
C6
  0
TEXT
  8
C500
  62
5
  10
344326.375420539
  20
354135.45159981
  40
1.27000000000508
  50
50.460382612032
  72
0
  73
1
  11
344326.375420539
  21
354135.45159981
  1
Qmax198 L/s
  0
INSERT
  8
C500
  2
FLOWARROW
  10
344333.683
  20
354135.9205
  30
0
  50
50.460382612032
  41
0.31750000000127
  42
0.31750000000127
  43
1
  62
5
  0
POLYLINE
  8
C500
  62
5
  66
1
  10
344373.471
  20
354184.1195
 40
0
 41
0
 38
0
  0
VERTEX
  8
C500
  10
344357.556
  20
354164.84
  30
0
  0
VERTEX
  8
C500
  10
344389.386
  20
354203.399
  30
0
  0
SEQEND
  0
TEXT
  8
C500
  62
5
  10
344371.385459973
  20
354184.441301102
  40
1.27000000000508
  50
50.4607285896437
  72
0
  73
1
  11
344371.385459973
  21
354184.441301102
  1
C7
  0
TEXT
  8
C500
  62
5
  10
344366.16342337
  20
354183.650555684
  40
1.27000000000508
  50
50.4607285896437
  72
0
  73
1
  11
344366.16342337
  21
354183.650555684
  1
Qmax198 L/s
  0
INSERT
  8
C500
  2
FLOWARROW
  10
344373.471
  20
354184.1195
  30
0
  50
50.4607285896437
  41
0.31750000000127
  42
0.31750000000127
  43
1
  62
5
  0
POLYLINE
  8
C500
  62
5
  66
1
  10
344410.095
  20
354215.933
 40
0
 41
0
 38
0
  0
VERTEX
  8
C500
  10
344389.386
  20
354203.399
  30
0
  0
VERTEX
  8
C500
  10
344430.804
  20
354228.467
  30
0
  0
SEQEND
  0
TEXT
  8
C500
  62
5
  10
344408.232619024
  20
354216.925255136
  40
1.27000000000508
  50
31.1841753493285
  72
0
  73
1
  11
344408.232619024
  21
354216.925255136
  1
C8
  0
TEXT
  8
C500
  62
5
  10
344403.042302706
  20
354217.902783198
  40
1.27000000000508
  50
31.1841753493285
  72
0
  73
1
  11
344403.042302706
  21
354217.902783198
  1
Qmax198 L/s
  0
INSERT
  8
C500
  2
FLOWARROW
  10
344410.095
  20
354215.933
  30
0
  50
31.1841753493285
  41
0.31750000000127
  42
0.31750000000127
  43
1
  62
5
  0
POLYLINE
  8
C500
  62
5
  66
1
  10
344441.3445
  20
354233.8495
 40
0
 41
0
 38
0
  0
VERTEX
  8
C500
  10
344430.804
  20
354228.467
  30
0
  0
VERTEX
  8
C500
  10
344451.885
  20
354239.232
  30
0
  0
SEQEND
  0
TEXT
  8
C500
  62
5
  10
344439.558477439
  20
354234.973402382
  40
1.27000000000508
  50
27.0511015461297
  72
0
  73
1
  11
344439.558477439
  21
354234.973402382
  1
C9
  0
TEXT
  8
C500
  62
5
  10
344434.452112919
  20
354236.322470947
  40
1.27000000000508
  50
27.0511015461297
  72
0
  73
1
  11
344434.452112919
  21
354236.322470947
  1
Qmax198 L/s
  0
INSERT
  8
C500
  2
FLOWARROW
  10
344441.3445
  20
354233.8495
  30
0
  50
27.0511015461297
  41
0.31750000000127
  42
0.31750000000127
  43
1
  62
5
  0
POLYLINE
  8
C400
  62
5
  66
1
  10
343991.076997547
  20
354050.70022193
 40
0
 41
0
 38
0
  0
VERTEX
  8
C400
  10
343984.47424979
  20
354044.620464094
  30
0
  0
VERTEX
  8
C400
  10
343997.679745305
  20
354056.779979766
  30
0
  0
SEQEND
  0
TEXT
  8
C400
  62
5
  10
343990.757686335
  20
354051.360532425
  40
1.27000000000508
  50
42.6386253418425
  72
0
  73
1
  11
343990.757686335
  21
354051.360532425
  1
P-1
  0
TEXT
  8
C400
  62
5
  10
343986.001888152
  20
354051.757551471
  40
1.27000000000508
  50
42.6386253418425
  72
0
  73
1
  11
343986.001888152
  21
354051.757551471
  1
Qmax99 L/s
  0
INSERT
  8
C400
  2
FLOWARROW
  10
343991.076997547
  20
354050.70022193
  30
0
  50
42.6386253418425
  41
0.31750000000127
  42
0.31750000000127
  43
1
  62
5
  0
POLYLINE
  8
C300
  62
5
  66
1
  10
344005.756872652
  20
354054.593989883
 40
0
 41
0
 38
0
  0
VERTEX
  8
C300
  10
343997.679745305
  20
354056.779979766
  30
0
  0
VERTEX
  8
C300
  10
344013.834
  20
354052.408
  30
0
  0
SEQEND
  0
TEXT
  8
C300
  62
5
  10
343998.793272535
  20
354051.258437184
  40
1.27000000000508
  50
344.856278172506
  72
0
  73
1
  11
343998.793272535
  21
354051.258437184
  1
P-2
  0
TEXT
  8
C300
  62
5
  10
343996.593670342
  20
354055.49364564
  40
1.27000000000508
  50
344.856278172506
  72
0
  73
1
  11
343996.593670342
  21
354055.49364564
  1
Qmax99 L/s
  0
INSERT
  8
C300
  2
FLOWARROW
  10
344005.756872652
  20
354054.593989883
  30
0
  50
344.856278172506
  41
0.31750000000127
  42
0.31750000000127
  43
1
  62
5
  0
POLYLINE
  8
C400
  62
5
  66
1
  10
343994.541805777
  20
354042.070888227
 40
0
 41
0
 38
0
  0
VERTEX
  8
C400
  10
343984.47424979
  20
354044.620464094
  30
0
  0
VERTEX
  8
C400
  10
344004.609361763
  20
354039.52131236
  30
0
  0
SEQEND
  0
TEXT
  8
C400
  62
5
  10
343990.888674764
  20
354043.419092235
  40
1.27000000000508
  50
345.788808130621
  72
0
  73
1
  11
343990.888674764
  21
354043.419092235
  1
P-3
  0
TEXT
  8
C400
  62
5
  10
343989.35514029
  20
354046.37272868
  40
1.27000000000508
  50
345.788808130621
  72
0
  73
1
  11
343989.35514029
  21
354046.37272868
  1
Qmax99 L/s
  0
INSERT
  8
C400
  2
FLOWARROW
  10
343994.541805777
  20
354042.070888227
  30
0
  50
345.788808130621
  41
0.31750000000127
  42
0.31750000000127
  43
1
  62
5
  0
POLYLINE
  8
C300
  62
5
  66
1
  10
344009.221680882
  20
354045.96465618
 40
0
 41
0
 38
0
  0
VERTEX
  8
C300
  10
344004.609361763
  20
354039.52131236
  30
0
  0
VERTEX
  8
C300
  10
344013.834
  20
354052.408
  30
0
  0
SEQEND
  0
TEXT
  8
C300
  62
5
  10
344006.971995171
  20
354045.958645967
  40
1.27000000000508
  50
54.403891941321
  72
0
  73
1
  11
344006.971995171
  21
354045.958645967
  1
P-4
  0
TEXT
  8
C300
  62
5
  10
344002.237055814
  20
354045.376245563
  40
1.27000000000508
  50
54.403891941321
  72
0
  73
1
  11
344002.237055814
  21
354045.376245563
  1
Qmax99 L/s
  0
INSERT
  8
C300
  2
FLOWARROW
  10
344009.221680882
  20
354045.96465618
  30
0
  50
54.403891941321
  41
0.31750000000127
  42
0.31750000000127
  43
1
  62
5
  0
ENDSEC
  0
EOF
